<svg xmlns="http://www.w3.org/2000/svg" xmlns:xlink="http://www.w3.org/1999/xlink" width="1920" zoomAndPan="magnify" viewBox="0 0 1440 809.999993" height="1080" preserveAspectRatio="xMidYMid meet" version="1.0"><defs><g/><clipPath id="8956fbaef1"><rect x="0" width="355" y="0" height="48"/></clipPath><clipPath id="4cfbc55d17"><path d="M 0.160156 1 L 73 1 L 73 92 L 0.160156 92 Z M 0.160156 1 " clip-rule="nonzero"/></clipPath><clipPath id="ee612729a5"><rect x="0" width="332" y="0" height="121"/></clipPath><clipPath id="43bba6b425"><rect x="0" width="331" y="0" height="170"/></clipPath></defs><g transform="matrix(1, 0, 0, 1, 543, 539)"><g clip-path="url(#8956fbaef1)"><g fill="#e15c31" fill-opacity="1"><g transform="translate(0.988321, 29.890686)"><g><path d="M 0.984375 -16.421875 L 5.34375 -16.421875 L 5.34375 -6.78125 C 5.34375 -5.59375 5.664062 -4.664062 6.3125 -4 C 6.96875 -3.332031 8.054688 -3 9.578125 -3 C 11.109375 -3 12.191406 -3.332031 12.828125 -4 C 13.472656 -4.664062 13.796875 -5.59375 13.796875 -6.78125 L 13.796875 -16.421875 L 18.140625 -16.421875 L 18.140625 -6.78125 C 18.140625 -4.5625 17.4375 -2.8125 16.03125 -1.53125 C 14.625 -0.257812 12.472656 0.375 9.578125 0.375 C 6.691406 0.375 4.535156 -0.257812 3.109375 -1.53125 C 1.691406 -2.8125 0.984375 -4.5625 0.984375 -6.78125 Z M 0.984375 -16.421875 "/></g></g></g><g fill="#e15c31" fill-opacity="1"><g transform="translate(17.967497, 29.890686)"><g><path d="M 0.984375 -11.734375 L 4.0625 -11.734375 L 4.5 -10.53125 C 4.957031 -11.03125 5.535156 -11.414062 6.234375 -11.6875 C 6.929688 -11.96875 7.738281 -12.109375 8.65625 -12.109375 C 9.875 -12.109375 10.882812 -11.878906 11.6875 -11.421875 C 12.5 -10.972656 13.109375 -10.347656 13.515625 -9.546875 C 13.921875 -8.753906 14.125 -7.847656 14.125 -6.828125 L 14.125 0 L 10.140625 0 L 10.140625 -6.828125 C 10.140625 -7.535156 9.914062 -8.082031 9.46875 -8.46875 C 9.019531 -8.863281 8.382812 -9.0625 7.5625 -9.0625 C 6.757812 -9.0625 6.125 -8.867188 5.65625 -8.484375 C 5.195312 -8.097656 4.96875 -7.546875 4.96875 -6.828125 L 4.96875 0 L 0.984375 0 Z M 0.984375 -11.734375 "/></g></g></g><g fill="#e15c31" fill-opacity="1"><g transform="translate(30.959555, 29.890686)"><g/></g></g><g fill="#e15c31" fill-opacity="1"><g transform="translate(35.27377, 29.890686)"><g><path d="M 6.78125 -12.109375 C 8.738281 -12.109375 10.203125 -11.785156 11.171875 -11.140625 C 12.140625 -10.503906 12.679688 -9.613281 12.796875 -8.46875 L 8.9375 -8.46875 C 8.8125 -8.738281 8.554688 -8.957031 8.171875 -9.125 C 7.796875 -9.300781 7.28125 -9.390625 6.625 -9.390625 C 5.863281 -9.390625 5.332031 -9.296875 5.03125 -9.109375 C 4.738281 -8.929688 4.59375 -8.710938 4.59375 -8.453125 C 4.59375 -8.210938 4.660156 -8.003906 4.796875 -7.828125 C 4.941406 -7.660156 5.226562 -7.523438 5.65625 -7.421875 L 9.90625 -6.578125 C 10.96875 -6.367188 11.753906 -6.003906 12.265625 -5.484375 C 12.773438 -4.972656 13.03125 -4.28125 13.03125 -3.40625 C 13.03125 -2.226562 12.507812 -1.300781 11.46875 -0.625 C 10.425781 0.0390625 8.859375 0.375 6.765625 0.375 C 4.742188 0.375 3.222656 0.0390625 2.203125 -0.625 C 1.191406 -1.289062 0.628906 -2.238281 0.515625 -3.46875 L 4.5 -3.46875 C 4.769531 -2.71875 5.578125 -2.34375 6.921875 -2.34375 C 7.640625 -2.34375 8.171875 -2.429688 8.515625 -2.609375 C 8.859375 -2.796875 9.03125 -3.015625 9.03125 -3.265625 C 9.03125 -3.453125 8.960938 -3.617188 8.828125 -3.765625 C 8.703125 -3.910156 8.410156 -4.039062 7.953125 -4.15625 L 3.828125 -5.0625 C 2.796875 -5.300781 2.023438 -5.691406 1.515625 -6.234375 C 1.003906 -6.785156 0.75 -7.539062 0.75 -8.5 C 0.75 -9.601562 1.242188 -10.476562 2.234375 -11.125 C 3.234375 -11.78125 4.75 -12.109375 6.78125 -12.109375 Z M 6.78125 -12.109375 "/></g></g></g><g fill="#e15c31" fill-opacity="1"><g transform="translate(46.62407, 29.890686)"><g><path d="M 7.5625 -12.109375 C 9.75 -12.109375 11.425781 -11.546875 12.59375 -10.421875 C 13.769531 -9.304688 14.359375 -7.785156 14.359375 -5.859375 C 14.359375 -5.691406 14.359375 -5.53125 14.359375 -5.375 C 14.359375 -5.226562 14.34375 -5.078125 14.3125 -4.921875 L 4.8125 -4.921875 C 4.9375 -4.109375 5.238281 -3.472656 5.71875 -3.015625 C 6.195312 -2.566406 6.832031 -2.34375 7.625 -2.34375 C 8.8125 -2.34375 9.625 -2.851562 10.0625 -3.875 L 14.21875 -3.875 C 13.875 -2.5625 13.140625 -1.523438 12.015625 -0.765625 C 10.890625 -0.00390625 9.421875 0.375 7.609375 0.375 C 5.378906 0.375 3.675781 -0.179688 2.5 -1.296875 C 1.332031 -2.421875 0.75 -3.941406 0.75 -5.859375 C 0.75 -7.785156 1.332031 -9.304688 2.5 -10.421875 C 3.675781 -11.546875 5.363281 -12.109375 7.5625 -12.109375 Z M 10.234375 -7.15625 C 10.078125 -7.863281 9.769531 -8.410156 9.3125 -8.796875 C 8.863281 -9.191406 8.28125 -9.390625 7.5625 -9.390625 C 6.84375 -9.390625 6.257812 -9.191406 5.8125 -8.796875 C 5.363281 -8.410156 5.050781 -7.863281 4.875 -7.15625 Z M 10.234375 -7.15625 "/></g></g></g><g fill="#e15c31" fill-opacity="1"><g transform="translate(59.616128, 29.890686)"><g><path d="M 11.21875 -11.734375 L 14.125 -11.734375 L 14.125 0.359375 C 14.125 1.804688 13.585938 2.953125 12.515625 3.796875 C 11.441406 4.640625 9.789062 5.0625 7.5625 5.0625 C 5.332031 5.0625 3.675781 4.695312 2.59375 3.96875 C 1.519531 3.25 0.984375 2.265625 0.984375 1.015625 L 0.984375 0.828125 L 4.90625 0.828125 L 4.96875 1.015625 C 5.082031 1.429688 5.335938 1.753906 5.734375 1.984375 C 6.140625 2.222656 6.75 2.34375 7.5625 2.34375 C 8.507812 2.34375 9.175781 2.15625 9.5625 1.78125 C 9.945312 1.40625 10.140625 0.929688 10.140625 0.359375 L 10.140625 -0.890625 C 9.203125 -0.046875 7.9375 0.375 6.34375 0.375 C 4.507812 0.375 3.117188 -0.179688 2.171875 -1.296875 C 1.222656 -2.421875 0.75 -3.941406 0.75 -5.859375 C 0.75 -7.785156 1.222656 -9.304688 2.171875 -10.421875 C 3.117188 -11.546875 4.507812 -12.109375 6.34375 -12.109375 C 7.3125 -12.109375 8.148438 -11.953125 8.859375 -11.640625 C 9.566406 -11.328125 10.15625 -10.878906 10.625 -10.296875 Z M 10.140625 -5.390625 L 10.140625 -6.34375 C 10.140625 -7.1875 9.90625 -7.847656 9.4375 -8.328125 C 8.976562 -8.816406 8.3125 -9.0625 7.4375 -9.0625 C 6.550781 -9.0625 5.878906 -8.78125 5.421875 -8.21875 C 4.960938 -7.664062 4.734375 -6.878906 4.734375 -5.859375 C 4.734375 -4.859375 4.960938 -4.078125 5.421875 -3.515625 C 5.878906 -2.953125 6.550781 -2.671875 7.4375 -2.671875 C 8.3125 -2.671875 8.976562 -2.910156 9.4375 -3.390625 C 9.90625 -3.878906 10.140625 -4.546875 10.140625 -5.390625 Z M 10.140625 -5.390625 "/></g></g></g><g fill="#e15c31" fill-opacity="1"><g transform="translate(72.608185, 29.890686)"><g><path d="M 10.140625 -11.734375 L 14.125 -11.734375 L 14.125 0 L 11.078125 0 L 10.625 -1.203125 C 10.175781 -0.710938 9.601562 -0.328125 8.90625 -0.046875 C 8.207031 0.234375 7.398438 0.375 6.484375 0.375 C 5.273438 0.375 4.257812 0.148438 3.4375 -0.296875 C 2.613281 -0.753906 2 -1.378906 1.59375 -2.171875 C 1.1875 -2.972656 0.984375 -3.882812 0.984375 -4.90625 L 0.984375 -11.734375 L 4.96875 -11.734375 L 4.96875 -4.90625 C 4.96875 -4.195312 5.191406 -3.644531 5.640625 -3.25 C 6.085938 -2.863281 6.726562 -2.671875 7.5625 -2.671875 C 8.351562 -2.671875 8.976562 -2.863281 9.4375 -3.25 C 9.90625 -3.632812 10.140625 -4.1875 10.140625 -4.90625 Z M 10.140625 -11.734375 "/></g></g></g><g fill="#e15c31" fill-opacity="1"><g transform="translate(85.600242, 29.890686)"><g><path d="M 0.984375 -11.734375 L 4.0625 -11.734375 L 4.5 -10.53125 C 4.957031 -11.03125 5.535156 -11.414062 6.234375 -11.6875 C 6.929688 -11.96875 7.738281 -12.109375 8.65625 -12.109375 C 9.875 -12.109375 10.882812 -11.878906 11.6875 -11.421875 C 12.5 -10.972656 13.109375 -10.347656 13.515625 -9.546875 C 13.921875 -8.753906 14.125 -7.847656 14.125 -6.828125 L 14.125 0 L 10.140625 0 L 10.140625 -6.828125 C 10.140625 -7.535156 9.914062 -8.082031 9.46875 -8.46875 C 9.019531 -8.863281 8.382812 -9.0625 7.5625 -9.0625 C 6.757812 -9.0625 6.125 -8.867188 5.65625 -8.484375 C 5.195312 -8.097656 4.96875 -7.546875 4.96875 -6.828125 L 4.96875 0 L 0.984375 0 Z M 0.984375 -11.734375 "/></g></g></g><g fill="#e15c31" fill-opacity="1"><g transform="translate(98.5923, 29.890686)"><g><path d="M 10.140625 -16.421875 L 14.125 -16.421875 L 14.125 0 L 11.078125 0 L 10.609375 -1.359375 C 9.640625 -0.203125 8.21875 0.375 6.34375 0.375 C 4.507812 0.375 3.117188 -0.179688 2.171875 -1.296875 C 1.222656 -2.421875 0.75 -3.941406 0.75 -5.859375 C 0.75 -7.785156 1.222656 -9.304688 2.171875 -10.421875 C 3.117188 -11.546875 4.507812 -12.109375 6.34375 -12.109375 C 7.9375 -12.109375 9.203125 -11.6875 10.140625 -10.84375 Z M 10.140625 -5.390625 L 10.140625 -6.34375 C 10.140625 -7.1875 9.910156 -7.847656 9.453125 -8.328125 C 9.003906 -8.816406 8.34375 -9.0625 7.46875 -9.0625 C 6.570312 -9.0625 5.890625 -8.78125 5.421875 -8.21875 C 4.960938 -7.664062 4.734375 -6.878906 4.734375 -5.859375 C 4.734375 -4.859375 4.960938 -4.078125 5.421875 -3.515625 C 5.890625 -2.953125 6.570312 -2.671875 7.46875 -2.671875 C 8.34375 -2.671875 9.003906 -2.910156 9.453125 -3.390625 C 9.910156 -3.878906 10.140625 -4.546875 10.140625 -5.390625 Z M 10.140625 -5.390625 "/></g></g></g><g fill="#e15c31" fill-opacity="1"><g transform="translate(111.584357, 29.890686)"><g><path d="M 7.5625 -12.109375 C 9.75 -12.109375 11.425781 -11.546875 12.59375 -10.421875 C 13.769531 -9.304688 14.359375 -7.785156 14.359375 -5.859375 C 14.359375 -3.941406 13.769531 -2.421875 12.59375 -1.296875 C 11.425781 -0.179688 9.75 0.375 7.5625 0.375 C 5.351562 0.375 3.664062 -0.179688 2.5 -1.296875 C 1.332031 -2.421875 0.75 -3.941406 0.75 -5.859375 C 0.75 -7.785156 1.332031 -9.304688 2.5 -10.421875 C 3.664062 -11.546875 5.351562 -12.109375 7.5625 -12.109375 Z M 7.5625 -9.0625 C 6.65625 -9.0625 5.957031 -8.78125 5.46875 -8.21875 C 4.976562 -7.664062 4.734375 -6.878906 4.734375 -5.859375 C 4.734375 -4.859375 4.976562 -4.078125 5.46875 -3.515625 C 5.957031 -2.953125 6.65625 -2.671875 7.5625 -2.671875 C 8.476562 -2.671875 9.175781 -2.953125 9.65625 -3.515625 C 10.132812 -4.078125 10.375 -4.859375 10.375 -5.859375 C 10.375 -6.878906 10.132812 -7.664062 9.65625 -8.21875 C 9.175781 -8.78125 8.476562 -9.0625 7.5625 -9.0625 Z M 7.5625 -9.0625 "/></g></g></g><g fill="#e15c31" fill-opacity="1"><g transform="translate(124.576414, 29.890686)"><g/></g></g><g fill="#e15c31" fill-opacity="1"><g transform="translate(128.89063, 29.890686)"><g><path d="M 0.984375 -16.421875 L 4.859375 -16.421875 L 4.859375 0 L 0.984375 0 Z M 0.984375 -16.421875 "/></g></g></g><g fill="#e15c31" fill-opacity="1"><g transform="translate(132.595052, 29.890686)"><g><path d="M 10.140625 -11.734375 L 14.125 -11.734375 L 14.125 0 L 11.078125 0 L 10.625 -1.203125 C 10.175781 -0.710938 9.601562 -0.328125 8.90625 -0.046875 C 8.207031 0.234375 7.398438 0.375 6.484375 0.375 C 5.273438 0.375 4.257812 0.148438 3.4375 -0.296875 C 2.613281 -0.753906 2 -1.378906 1.59375 -2.171875 C 1.1875 -2.972656 0.984375 -3.882812 0.984375 -4.90625 L 0.984375 -11.734375 L 4.96875 -11.734375 L 4.96875 -4.90625 C 4.96875 -4.195312 5.191406 -3.644531 5.640625 -3.25 C 6.085938 -2.863281 6.726562 -2.671875 7.5625 -2.671875 C 8.351562 -2.671875 8.976562 -2.863281 9.4375 -3.25 C 9.90625 -3.632812 10.140625 -4.1875 10.140625 -4.90625 Z M 10.140625 -11.734375 "/></g></g></g><g fill="#e15c31" fill-opacity="1"><g transform="translate(145.58711, 29.890686)"><g><path d="M 11.21875 -11.734375 L 14.125 -11.734375 L 14.125 0.359375 C 14.125 1.804688 13.585938 2.953125 12.515625 3.796875 C 11.441406 4.640625 9.789062 5.0625 7.5625 5.0625 C 5.332031 5.0625 3.675781 4.695312 2.59375 3.96875 C 1.519531 3.25 0.984375 2.265625 0.984375 1.015625 L 0.984375 0.828125 L 4.90625 0.828125 L 4.96875 1.015625 C 5.082031 1.429688 5.335938 1.753906 5.734375 1.984375 C 6.140625 2.222656 6.75 2.34375 7.5625 2.34375 C 8.507812 2.34375 9.175781 2.15625 9.5625 1.78125 C 9.945312 1.40625 10.140625 0.929688 10.140625 0.359375 L 10.140625 -0.890625 C 9.203125 -0.046875 7.9375 0.375 6.34375 0.375 C 4.507812 0.375 3.117188 -0.179688 2.171875 -1.296875 C 1.222656 -2.421875 0.75 -3.941406 0.75 -5.859375 C 0.75 -7.785156 1.222656 -9.304688 2.171875 -10.421875 C 3.117188 -11.546875 4.507812 -12.109375 6.34375 -12.109375 C 7.3125 -12.109375 8.148438 -11.953125 8.859375 -11.640625 C 9.566406 -11.328125 10.15625 -10.878906 10.625 -10.296875 Z M 10.140625 -5.390625 L 10.140625 -6.34375 C 10.140625 -7.1875 9.90625 -7.847656 9.4375 -8.328125 C 8.976562 -8.816406 8.3125 -9.0625 7.4375 -9.0625 C 6.550781 -9.0625 5.878906 -8.78125 5.421875 -8.21875 C 4.960938 -7.664062 4.734375 -6.878906 4.734375 -5.859375 C 4.734375 -4.859375 4.960938 -4.078125 5.421875 -3.515625 C 5.878906 -2.953125 6.550781 -2.671875 7.4375 -2.671875 C 8.3125 -2.671875 8.976562 -2.910156 9.4375 -3.390625 C 9.90625 -3.878906 10.140625 -4.546875 10.140625 -5.390625 Z M 10.140625 -5.390625 "/></g></g></g><g fill="#e15c31" fill-opacity="1"><g transform="translate(158.579167, 29.890686)"><g><path d="M 7.53125 -12.109375 C 9.769531 -12.109375 11.425781 -11.738281 12.5 -11 C 13.570312 -10.269531 14.109375 -9.296875 14.109375 -8.078125 L 14.109375 0 L 11 0 L 10.53125 -1.359375 C 9.96875 -0.816406 9.253906 -0.390625 8.390625 -0.078125 C 7.535156 0.222656 6.5625 0.375 5.46875 0.375 C 3.96875 0.375 2.800781 0.0820312 1.96875 -0.5 C 1.144531 -1.09375 0.734375 -1.957031 0.734375 -3.09375 C 0.734375 -3.96875 1.03125 -4.71875 1.625 -5.34375 C 2.226562 -5.976562 3.21875 -6.46875 4.59375 -6.8125 C 5.976562 -7.15625 7.816406 -7.34375 10.109375 -7.375 L 10.109375 -8.078125 C 10.109375 -8.484375 9.914062 -8.828125 9.53125 -9.109375 C 9.15625 -9.398438 8.488281 -9.546875 7.53125 -9.546875 C 6.59375 -9.546875 5.925781 -9.40625 5.53125 -9.125 C 5.144531 -8.84375 4.953125 -8.492188 4.953125 -8.078125 L 4.953125 -7.84375 L 0.96875 -7.84375 L 0.96875 -8.078125 C 0.96875 -9.242188 1.503906 -10.207031 2.578125 -10.96875 C 3.660156 -11.726562 5.3125 -12.109375 7.53125 -12.109375 Z M 10.109375 -4.640625 L 10.109375 -5.25 C 8.691406 -5.238281 7.585938 -5.160156 6.796875 -5.015625 C 6.003906 -4.878906 5.453125 -4.6875 5.140625 -4.4375 C 4.828125 -4.1875 4.671875 -3.875 4.671875 -3.5 C 4.671875 -3.125 4.835938 -2.8125 5.171875 -2.5625 C 5.503906 -2.3125 6.050781 -2.1875 6.8125 -2.1875 C 7.820312 -2.1875 8.625 -2.421875 9.21875 -2.890625 C 9.8125 -3.367188 10.109375 -3.953125 10.109375 -4.640625 Z M 10.109375 -4.640625 "/></g></g></g><g fill="#e15c31" fill-opacity="1"><g transform="translate(171.524325, 29.890686)"><g><path d="M 0.984375 -11.734375 L 3.9375 -11.734375 L 4.34375 -10.8125 C 5.03125 -11.675781 5.890625 -12.109375 6.921875 -12.109375 C 7.421875 -12.109375 7.820312 -12.070312 8.125 -12 C 8.4375 -11.9375 8.738281 -11.820312 9.03125 -11.65625 L 9.03125 -8.609375 C 8.738281 -8.765625 8.441406 -8.878906 8.140625 -8.953125 C 7.847656 -9.023438 7.472656 -9.0625 7.015625 -9.0625 C 6.484375 -9.0625 6.007812 -8.859375 5.59375 -8.453125 C 5.175781 -8.054688 4.96875 -7.515625 4.96875 -6.828125 L 4.96875 0 L 0.984375 0 Z M 0.984375 -11.734375 "/></g></g></g><g fill="#e15c31" fill-opacity="1"><g transform="translate(178.652972, 29.890686)"><g/></g></g><g fill="#e15c31" fill-opacity="1"><g transform="translate(182.967188, 29.890686)"><g><path d="M 0.984375 -11.734375 L 4.0625 -11.734375 L 4.53125 -10.34375 C 5 -10.90625 5.585938 -11.335938 6.296875 -11.640625 C 7.015625 -11.953125 7.847656 -12.109375 8.796875 -12.109375 C 10.628906 -12.109375 12.015625 -11.546875 12.953125 -10.421875 C 13.890625 -9.304688 14.359375 -7.785156 14.359375 -5.859375 C 14.359375 -3.941406 13.890625 -2.421875 12.953125 -1.296875 C 12.015625 -0.179688 10.628906 0.375 8.796875 0.375 C 7.984375 0.375 7.253906 0.257812 6.609375 0.03125 C 5.972656 -0.195312 5.425781 -0.515625 4.96875 -0.921875 L 4.96875 4.6875 L 0.984375 4.6875 Z M 4.96875 -6.34375 L 4.96875 -5.390625 C 4.96875 -4.546875 5.203125 -3.878906 5.671875 -3.390625 C 6.148438 -2.910156 6.816406 -2.671875 7.671875 -2.671875 C 8.566406 -2.671875 9.238281 -2.953125 9.6875 -3.515625 C 10.144531 -4.078125 10.375 -4.859375 10.375 -5.859375 C 10.375 -6.878906 10.144531 -7.664062 9.6875 -8.21875 C 9.238281 -8.78125 8.566406 -9.0625 7.671875 -9.0625 C 6.816406 -9.0625 6.148438 -8.816406 5.671875 -8.328125 C 5.203125 -7.847656 4.96875 -7.1875 4.96875 -6.34375 Z M 4.96875 -6.34375 "/></g></g></g><g fill="#e15c31" fill-opacity="1"><g transform="translate(195.959245, 29.890686)"><g><path d="M 7.53125 -12.109375 C 9.769531 -12.109375 11.425781 -11.738281 12.5 -11 C 13.570312 -10.269531 14.109375 -9.296875 14.109375 -8.078125 L 14.109375 0 L 11 0 L 10.53125 -1.359375 C 9.96875 -0.816406 9.253906 -0.390625 8.390625 -0.078125 C 7.535156 0.222656 6.5625 0.375 5.46875 0.375 C 3.96875 0.375 2.800781 0.0820312 1.96875 -0.5 C 1.144531 -1.09375 0.734375 -1.957031 0.734375 -3.09375 C 0.734375 -3.96875 1.03125 -4.71875 1.625 -5.34375 C 2.226562 -5.976562 3.21875 -6.46875 4.59375 -6.8125 C 5.976562 -7.15625 7.816406 -7.34375 10.109375 -7.375 L 10.109375 -8.078125 C 10.109375 -8.484375 9.914062 -8.828125 9.53125 -9.109375 C 9.15625 -9.398438 8.488281 -9.546875 7.53125 -9.546875 C 6.59375 -9.546875 5.925781 -9.40625 5.53125 -9.125 C 5.144531 -8.84375 4.953125 -8.492188 4.953125 -8.078125 L 4.953125 -7.84375 L 0.96875 -7.84375 L 0.96875 -8.078125 C 0.96875 -9.242188 1.503906 -10.207031 2.578125 -10.96875 C 3.660156 -11.726562 5.3125 -12.109375 7.53125 -12.109375 Z M 10.109375 -4.640625 L 10.109375 -5.25 C 8.691406 -5.238281 7.585938 -5.160156 6.796875 -5.015625 C 6.003906 -4.878906 5.453125 -4.6875 5.140625 -4.4375 C 4.828125 -4.1875 4.671875 -3.875 4.671875 -3.5 C 4.671875 -3.125 4.835938 -2.8125 5.171875 -2.5625 C 5.503906 -2.3125 6.050781 -2.1875 6.8125 -2.1875 C 7.820312 -2.1875 8.625 -2.421875 9.21875 -2.890625 C 9.8125 -3.367188 10.109375 -3.953125 10.109375 -4.640625 Z M 10.109375 -4.640625 "/></g></g></g><g fill="#e15c31" fill-opacity="1"><g transform="translate(208.904403, 29.890686)"><g><path d="M 0.984375 -11.734375 L 3.9375 -11.734375 L 4.34375 -10.8125 C 5.03125 -11.675781 5.890625 -12.109375 6.921875 -12.109375 C 7.421875 -12.109375 7.820312 -12.070312 8.125 -12 C 8.4375 -11.9375 8.738281 -11.820312 9.03125 -11.65625 L 9.03125 -8.609375 C 8.738281 -8.765625 8.441406 -8.878906 8.140625 -8.953125 C 7.847656 -9.023438 7.472656 -9.0625 7.015625 -9.0625 C 6.484375 -9.0625 6.007812 -8.859375 5.59375 -8.453125 C 5.175781 -8.054688 4.96875 -7.515625 4.96875 -6.828125 L 4.96875 0 L 0.984375 0 Z M 0.984375 -11.734375 "/></g></g></g><g fill="#e15c31" fill-opacity="1"><g transform="translate(216.03305, 29.890686)"><g><path d="M 7.53125 -12.109375 C 9.769531 -12.109375 11.425781 -11.738281 12.5 -11 C 13.570312 -10.269531 14.109375 -9.296875 14.109375 -8.078125 L 14.109375 0 L 11 0 L 10.53125 -1.359375 C 9.96875 -0.816406 9.253906 -0.390625 8.390625 -0.078125 C 7.535156 0.222656 6.5625 0.375 5.46875 0.375 C 3.96875 0.375 2.800781 0.0820312 1.96875 -0.5 C 1.144531 -1.09375 0.734375 -1.957031 0.734375 -3.09375 C 0.734375 -3.96875 1.03125 -4.71875 1.625 -5.34375 C 2.226562 -5.976562 3.21875 -6.46875 4.59375 -6.8125 C 5.976562 -7.15625 7.816406 -7.34375 10.109375 -7.375 L 10.109375 -8.078125 C 10.109375 -8.484375 9.914062 -8.828125 9.53125 -9.109375 C 9.15625 -9.398438 8.488281 -9.546875 7.53125 -9.546875 C 6.59375 -9.546875 5.925781 -9.40625 5.53125 -9.125 C 5.144531 -8.84375 4.953125 -8.492188 4.953125 -8.078125 L 4.953125 -7.84375 L 0.96875 -7.84375 L 0.96875 -8.078125 C 0.96875 -9.242188 1.503906 -10.207031 2.578125 -10.96875 C 3.660156 -11.726562 5.3125 -12.109375 7.53125 -12.109375 Z M 10.109375 -4.640625 L 10.109375 -5.25 C 8.691406 -5.238281 7.585938 -5.160156 6.796875 -5.015625 C 6.003906 -4.878906 5.453125 -4.6875 5.140625 -4.4375 C 4.828125 -4.1875 4.671875 -3.875 4.671875 -3.5 C 4.671875 -3.125 4.835938 -2.8125 5.171875 -2.5625 C 5.503906 -2.3125 6.050781 -2.1875 6.8125 -2.1875 C 7.820312 -2.1875 8.625 -2.421875 9.21875 -2.890625 C 9.8125 -3.367188 10.109375 -3.953125 10.109375 -4.640625 Z M 10.109375 -4.640625 "/></g></g></g><g fill="#e15c31" fill-opacity="1"><g transform="translate(228.978222, 29.890686)"><g/></g></g><g fill="#e15c31" fill-opacity="1"><g transform="translate(233.292411, 29.890686)"><g><path d="M 3.234375 -15.90625 L 6.359375 -15.90625 L 6.359375 -11.734375 L 9.859375 -11.734375 L 9.859375 -8.796875 L 6.359375 -8.796875 L 6.359375 -4.359375 C 6.359375 -3.796875 6.503906 -3.375 6.796875 -3.09375 C 7.085938 -2.8125 7.46875 -2.671875 7.9375 -2.671875 C 8.3125 -2.671875 8.644531 -2.691406 8.9375 -2.734375 C 9.238281 -2.785156 9.546875 -2.890625 9.859375 -3.046875 L 9.859375 -0.1875 C 9.398438 0.0195312 8.910156 0.164062 8.390625 0.25 C 7.867188 0.332031 7.300781 0.375 6.6875 0.375 C 5.3125 0.375 4.25 -0.00390625 3.5 -0.765625 C 2.75 -1.535156 2.375 -2.585938 2.375 -3.921875 L 2.375 -8.796875 L 0.3125 -8.796875 L 0.3125 -11.734375 L 2.390625 -11.734375 Z M 3.234375 -15.90625 "/></g></g></g><g fill="#e15c31" fill-opacity="1"><g transform="translate(241.265386, 29.890686)"><g><path d="M 10.140625 -11.734375 L 14.125 -11.734375 L 14.125 0 L 11.078125 0 L 10.625 -1.203125 C 10.175781 -0.710938 9.601562 -0.328125 8.90625 -0.046875 C 8.207031 0.234375 7.398438 0.375 6.484375 0.375 C 5.273438 0.375 4.257812 0.148438 3.4375 -0.296875 C 2.613281 -0.753906 2 -1.378906 1.59375 -2.171875 C 1.1875 -2.972656 0.984375 -3.882812 0.984375 -4.90625 L 0.984375 -11.734375 L 4.96875 -11.734375 L 4.96875 -4.90625 C 4.96875 -4.195312 5.191406 -3.644531 5.640625 -3.25 C 6.085938 -2.863281 6.726562 -2.671875 7.5625 -2.671875 C 8.351562 -2.671875 8.976562 -2.863281 9.4375 -3.25 C 9.90625 -3.632812 10.140625 -4.1875 10.140625 -4.90625 Z M 10.140625 -11.734375 "/></g></g></g><g fill="#e15c31" fill-opacity="1"><g transform="translate(254.257443, 29.890686)"><g/></g></g><g fill="#e15c31" fill-opacity="1"><g transform="translate(258.571685, 29.890686)"><g><path d="M 0.984375 -11.734375 L 3.9375 -11.734375 L 4.390625 -10.75 C 4.742188 -11.164062 5.191406 -11.492188 5.734375 -11.734375 C 6.273438 -11.984375 6.90625 -12.109375 7.625 -12.109375 C 8.425781 -12.109375 9.117188 -11.960938 9.703125 -11.671875 C 10.285156 -11.378906 10.75 -10.984375 11.09375 -10.484375 C 11.4375 -10.984375 11.898438 -11.378906 12.484375 -11.671875 C 13.066406 -11.960938 13.753906 -12.109375 14.546875 -12.109375 C 15.953125 -12.109375 17.015625 -11.6875 17.734375 -10.84375 C 18.460938 -10 18.828125 -8.9375 18.828125 -7.65625 L 18.828125 0 L 14.828125 0 L 14.828125 -7.65625 C 14.828125 -8.09375 14.707031 -8.4375 14.46875 -8.6875 C 14.226562 -8.9375 13.863281 -9.0625 13.375 -9.0625 C 12.9375 -9.0625 12.582031 -8.9375 12.3125 -8.6875 C 12.050781 -8.445312 11.921875 -8.101562 11.921875 -7.65625 L 11.921875 0 L 7.9375 0 L 7.9375 -7.65625 C 7.9375 -8.09375 7.8125 -8.4375 7.5625 -8.6875 C 7.320312 -8.9375 6.953125 -9.0625 6.453125 -9.0625 C 6.015625 -9.0625 5.65625 -8.9375 5.375 -8.6875 C 5.101562 -8.445312 4.96875 -8.101562 4.96875 -7.65625 L 4.96875 0 L 0.984375 0 Z M 0.984375 -11.734375 "/></g></g></g><g fill="#e15c31" fill-opacity="1"><g transform="translate(276.254466, 29.890686)"><g><path d="M 7.53125 -12.109375 C 9.769531 -12.109375 11.425781 -11.738281 12.5 -11 C 13.570312 -10.269531 14.109375 -9.296875 14.109375 -8.078125 L 14.109375 0 L 11 0 L 10.53125 -1.359375 C 9.96875 -0.816406 9.253906 -0.390625 8.390625 -0.078125 C 7.535156 0.222656 6.5625 0.375 5.46875 0.375 C 3.96875 0.375 2.800781 0.0820312 1.96875 -0.5 C 1.144531 -1.09375 0.734375 -1.957031 0.734375 -3.09375 C 0.734375 -3.96875 1.03125 -4.71875 1.625 -5.34375 C 2.226562 -5.976562 3.21875 -6.46875 4.59375 -6.8125 C 5.976562 -7.15625 7.816406 -7.34375 10.109375 -7.375 L 10.109375 -8.078125 C 10.109375 -8.484375 9.914062 -8.828125 9.53125 -9.109375 C 9.15625 -9.398438 8.488281 -9.546875 7.53125 -9.546875 C 6.59375 -9.546875 5.925781 -9.40625 5.53125 -9.125 C 5.144531 -8.84375 4.953125 -8.492188 4.953125 -8.078125 L 4.953125 -7.84375 L 0.96875 -7.84375 L 0.96875 -8.078125 C 0.96875 -9.242188 1.503906 -10.207031 2.578125 -10.96875 C 3.660156 -11.726562 5.3125 -12.109375 7.53125 -12.109375 Z M 10.109375 -4.640625 L 10.109375 -5.25 C 8.691406 -5.238281 7.585938 -5.160156 6.796875 -5.015625 C 6.003906 -4.878906 5.453125 -4.6875 5.140625 -4.4375 C 4.828125 -4.1875 4.671875 -3.875 4.671875 -3.5 C 4.671875 -3.125 4.835938 -2.8125 5.171875 -2.5625 C 5.503906 -2.3125 6.050781 -2.1875 6.8125 -2.1875 C 7.820312 -2.1875 8.625 -2.421875 9.21875 -2.890625 C 9.8125 -3.367188 10.109375 -3.953125 10.109375 -4.640625 Z M 10.109375 -4.640625 "/></g></g></g><g fill="#e15c31" fill-opacity="1"><g transform="translate(289.199637, 29.890686)"><g><path d="M 6.78125 -12.109375 C 8.738281 -12.109375 10.203125 -11.785156 11.171875 -11.140625 C 12.140625 -10.503906 12.679688 -9.613281 12.796875 -8.46875 L 8.9375 -8.46875 C 8.8125 -8.738281 8.554688 -8.957031 8.171875 -9.125 C 7.796875 -9.300781 7.28125 -9.390625 6.625 -9.390625 C 5.863281 -9.390625 5.332031 -9.296875 5.03125 -9.109375 C 4.738281 -8.929688 4.59375 -8.710938 4.59375 -8.453125 C 4.59375 -8.210938 4.660156 -8.003906 4.796875 -7.828125 C 4.941406 -7.660156 5.226562 -7.523438 5.65625 -7.421875 L 9.90625 -6.578125 C 10.96875 -6.367188 11.753906 -6.003906 12.265625 -5.484375 C 12.773438 -4.972656 13.03125 -4.28125 13.03125 -3.40625 C 13.03125 -2.226562 12.507812 -1.300781 11.46875 -0.625 C 10.425781 0.0390625 8.859375 0.375 6.765625 0.375 C 4.742188 0.375 3.222656 0.0390625 2.203125 -0.625 C 1.191406 -1.289062 0.628906 -2.238281 0.515625 -3.46875 L 4.5 -3.46875 C 4.769531 -2.71875 5.578125 -2.34375 6.921875 -2.34375 C 7.640625 -2.34375 8.171875 -2.429688 8.515625 -2.609375 C 8.859375 -2.796875 9.03125 -3.015625 9.03125 -3.265625 C 9.03125 -3.453125 8.960938 -3.617188 8.828125 -3.765625 C 8.703125 -3.910156 8.410156 -4.039062 7.953125 -4.15625 L 3.828125 -5.0625 C 2.796875 -5.300781 2.023438 -5.691406 1.515625 -6.234375 C 1.003906 -6.785156 0.75 -7.539062 0.75 -8.5 C 0.75 -9.601562 1.242188 -10.476562 2.234375 -11.125 C 3.234375 -11.78125 4.75 -12.109375 6.78125 -12.109375 Z M 6.78125 -12.109375 "/></g></g></g><g fill="#e15c31" fill-opacity="1"><g transform="translate(300.549924, 29.890686)"><g><path d="M 7.65625 -12.109375 C 9.570312 -12.109375 11.101562 -11.695312 12.25 -10.875 C 13.394531 -10.050781 14.097656 -8.898438 14.359375 -7.421875 L 10.375 -7.421875 C 9.9375 -8.515625 9.050781 -9.0625 7.71875 -9.0625 C 6.769531 -9.0625 6.035156 -8.78125 5.515625 -8.21875 C 4.992188 -7.664062 4.734375 -6.878906 4.734375 -5.859375 C 4.734375 -4.859375 4.992188 -4.078125 5.515625 -3.515625 C 6.035156 -2.953125 6.769531 -2.671875 7.71875 -2.671875 C 9.050781 -2.671875 9.9375 -3.21875 10.375 -4.3125 L 14.359375 -4.3125 C 14.097656 -2.84375 13.394531 -1.691406 12.25 -0.859375 C 11.101562 -0.0351562 9.570312 0.375 7.65625 0.375 C 5.425781 0.375 3.71875 -0.179688 2.53125 -1.296875 C 1.34375 -2.421875 0.75 -3.941406 0.75 -5.859375 C 0.75 -7.785156 1.34375 -9.304688 2.53125 -10.421875 C 3.71875 -11.546875 5.425781 -12.109375 7.65625 -12.109375 Z M 7.65625 -12.109375 "/></g></g></g><g fill="#e15c31" fill-opacity="1"><g transform="translate(313.495069, 29.890686)"><g><path d="M 7.5625 -12.109375 C 9.75 -12.109375 11.425781 -11.546875 12.59375 -10.421875 C 13.769531 -9.304688 14.359375 -7.785156 14.359375 -5.859375 C 14.359375 -3.941406 13.769531 -2.421875 12.59375 -1.296875 C 11.425781 -0.179688 9.75 0.375 7.5625 0.375 C 5.351562 0.375 3.664062 -0.179688 2.5 -1.296875 C 1.332031 -2.421875 0.75 -3.941406 0.75 -5.859375 C 0.75 -7.785156 1.332031 -9.304688 2.5 -10.421875 C 3.664062 -11.546875 5.351562 -12.109375 7.5625 -12.109375 Z M 7.5625 -9.0625 C 6.65625 -9.0625 5.957031 -8.78125 5.46875 -8.21875 C 4.976562 -7.664062 4.734375 -6.878906 4.734375 -5.859375 C 4.734375 -4.859375 4.976562 -4.078125 5.46875 -3.515625 C 5.957031 -2.953125 6.65625 -2.671875 7.5625 -2.671875 C 8.476562 -2.671875 9.175781 -2.953125 9.65625 -3.515625 C 10.132812 -4.078125 10.375 -4.859375 10.375 -5.859375 C 10.375 -6.878906 10.132812 -7.664062 9.65625 -8.21875 C 9.175781 -8.78125 8.476562 -9.0625 7.5625 -9.0625 Z M 7.5625 -9.0625 "/></g></g></g><g fill="#e15c31" fill-opacity="1"><g transform="translate(326.487126, 29.890686)"><g><path d="M 3.234375 -15.90625 L 6.359375 -15.90625 L 6.359375 -11.734375 L 9.859375 -11.734375 L 9.859375 -8.796875 L 6.359375 -8.796875 L 6.359375 -4.359375 C 6.359375 -3.796875 6.503906 -3.375 6.796875 -3.09375 C 7.085938 -2.8125 7.46875 -2.671875 7.9375 -2.671875 C 8.3125 -2.671875 8.644531 -2.691406 8.9375 -2.734375 C 9.238281 -2.785156 9.546875 -2.890625 9.859375 -3.046875 L 9.859375 -0.1875 C 9.398438 0.0195312 8.910156 0.164062 8.390625 0.25 C 7.867188 0.332031 7.300781 0.375 6.6875 0.375 C 5.3125 0.375 4.25 -0.00390625 3.5 -0.765625 C 2.75 -1.535156 2.375 -2.585938 2.375 -3.921875 L 2.375 -8.796875 L 0.3125 -8.796875 L 0.3125 -11.734375 L 2.390625 -11.734375 Z M 3.234375 -15.90625 "/></g></g></g><g fill="#e15c31" fill-opacity="1"><g transform="translate(334.460101, 29.890686)"><g><path d="M 7.53125 -12.109375 C 9.769531 -12.109375 11.425781 -11.738281 12.5 -11 C 13.570312 -10.269531 14.109375 -9.296875 14.109375 -8.078125 L 14.109375 0 L 11 0 L 10.53125 -1.359375 C 9.96875 -0.816406 9.253906 -0.390625 8.390625 -0.078125 C 7.535156 0.222656 6.5625 0.375 5.46875 0.375 C 3.96875 0.375 2.800781 0.0820312 1.96875 -0.5 C 1.144531 -1.09375 0.734375 -1.957031 0.734375 -3.09375 C 0.734375 -3.96875 1.03125 -4.71875 1.625 -5.34375 C 2.226562 -5.976562 3.21875 -6.46875 4.59375 -6.8125 C 5.976562 -7.15625 7.816406 -7.34375 10.109375 -7.375 L 10.109375 -8.078125 C 10.109375 -8.484375 9.914062 -8.828125 9.53125 -9.109375 C 9.15625 -9.398438 8.488281 -9.546875 7.53125 -9.546875 C 6.59375 -9.546875 5.925781 -9.40625 5.53125 -9.125 C 5.144531 -8.84375 4.953125 -8.492188 4.953125 -8.078125 L 4.953125 -7.84375 L 0.96875 -7.84375 L 0.96875 -8.078125 C 0.96875 -9.242188 1.503906 -10.207031 2.578125 -10.96875 C 3.660156 -11.726562 5.3125 -12.109375 7.53125 -12.109375 Z M 10.109375 -4.640625 L 10.109375 -5.25 C 8.691406 -5.238281 7.585938 -5.160156 6.796875 -5.015625 C 6.003906 -4.878906 5.453125 -4.6875 5.140625 -4.4375 C 4.828125 -4.1875 4.671875 -3.875 4.671875 -3.5 C 4.671875 -3.125 4.835938 -2.8125 5.171875 -2.5625 C 5.503906 -2.3125 6.050781 -2.1875 6.8125 -2.1875 C 7.820312 -2.1875 8.625 -2.421875 9.21875 -2.890625 C 9.8125 -3.367188 10.109375 -3.953125 10.109375 -4.640625 Z M 10.109375 -4.640625 "/></g></g></g><g fill="#e15c31" fill-opacity="1"><g transform="translate(347.405273, 29.890686)"><g><path d="M 0.75 -4.109375 L 4.875 -4.109375 L 4.875 0 L 0.75 0 Z M 0.75 -4.109375 "/></g></g></g></g></g><g transform="matrix(1, 0, 0, 1, 554, 281)"><g clip-path="url(#ee612729a5)"><g clip-path="url(#4cfbc55d17)"><g fill="#e15c31" fill-opacity="1"><g transform="translate(1.375708, 90.692792)"><g><path d="M -0.609375 -44.171875 C -0.609375 -49.117188 -0.273438 -53.847656 0.390625 -58.359375 C 1.066406 -62.878906 2.191406 -67.007812 3.765625 -70.75 C 5.347656 -74.5 7.507812 -77.765625 10.25 -80.546875 C 12.988281 -83.328125 16.410156 -85.472656 20.515625 -86.984375 C 24.628906 -88.492188 29.566406 -89.25 35.328125 -89.25 C 41.097656 -89.25 46.035156 -88.492188 50.140625 -86.984375 C 54.253906 -85.472656 57.679688 -83.328125 60.421875 -80.546875 C 63.160156 -77.765625 65.316406 -74.5 66.890625 -70.75 C 68.460938 -67.007812 69.585938 -62.890625 70.265625 -58.390625 C 70.941406 -53.898438 71.28125 -49.160156 71.28125 -44.171875 C 71.28125 -39.222656 70.941406 -34.488281 70.265625 -29.96875 C 69.585938 -25.445312 68.460938 -21.316406 66.890625 -17.578125 C 65.316406 -13.835938 63.160156 -10.578125 60.421875 -7.796875 C 57.679688 -5.015625 54.253906 -2.863281 50.140625 -1.34375 C 46.035156 0.164062 41.097656 0.921875 35.328125 0.921875 C 29.566406 0.921875 24.628906 0.164062 20.515625 -1.34375 C 16.410156 -2.863281 12.988281 -5.015625 10.25 -7.796875 C 7.507812 -10.578125 5.347656 -13.835938 3.765625 -17.578125 C 2.191406 -21.316406 1.066406 -25.445312 0.390625 -29.96875 C -0.273438 -34.488281 -0.609375 -39.222656 -0.609375 -44.171875 Z M 23.25 -44.171875 C 23.25 -40.523438 23.398438 -37.109375 23.703125 -33.921875 C 24.015625 -30.734375 24.597656 -27.929688 25.453125 -25.515625 C 26.316406 -23.109375 27.535156 -21.21875 29.109375 -19.84375 C 30.679688 -18.476562 32.753906 -17.796875 35.328125 -17.796875 C 37.910156 -17.796875 39.988281 -18.476562 41.5625 -19.84375 C 43.132812 -21.21875 44.347656 -23.109375 45.203125 -25.515625 C 46.066406 -27.929688 46.648438 -30.734375 46.953125 -33.921875 C 47.265625 -37.109375 47.421875 -40.523438 47.421875 -44.171875 C 47.421875 -47.804688 47.265625 -51.21875 46.953125 -54.40625 C 46.648438 -57.601562 46.066406 -60.414062 45.203125 -62.84375 C 44.347656 -65.28125 43.132812 -67.179688 41.5625 -68.546875 C 39.988281 -69.921875 37.910156 -70.609375 35.328125 -70.609375 C 32.753906 -70.609375 30.679688 -69.921875 29.109375 -68.546875 C 27.535156 -67.179688 26.316406 -65.28125 25.453125 -62.84375 C 24.597656 -60.414062 24.015625 -57.601562 23.703125 -54.40625 C 23.398438 -51.21875 23.25 -47.804688 23.25 -44.171875 Z M 23.25 -44.171875 "/></g></g></g></g><g fill="#e15c31" fill-opacity="1"><g transform="translate(66.509332, 90.692792)"><g><path d="M 6.8125 -44.171875 C 6.8125 -48.546875 6.675781 -52.316406 6.40625 -55.484375 C 6.144531 -58.648438 5.796875 -61.378906 5.359375 -63.671875 C 4.929688 -65.960938 4.484375 -67.945312 4.015625 -69.625 C 3.546875 -71.300781 3.097656 -72.8125 2.671875 -74.15625 C 2.242188 -75.507812 1.894531 -76.867188 1.625 -78.234375 C 1.363281 -79.609375 1.234375 -81.113281 1.234375 -82.75 C 1.234375 -84.257812 1.585938 -85.40625 2.296875 -86.1875 C 3.015625 -86.96875 3.894531 -87.507812 4.9375 -87.8125 C 5.976562 -88.125 7.007812 -88.285156 8.03125 -88.296875 C 9.050781 -88.316406 9.890625 -88.328125 10.546875 -88.328125 L 26.375 -88.328125 C 27.03125 -88.328125 27.867188 -88.316406 28.890625 -88.296875 C 29.910156 -88.285156 30.941406 -88.125 31.984375 -87.8125 C 33.035156 -87.507812 33.914062 -86.96875 34.625 -86.1875 C 35.34375 -85.40625 35.703125 -84.257812 35.703125 -82.75 C 35.703125 -81.03125 35.554688 -79.484375 35.265625 -78.109375 C 34.984375 -76.742188 34.617188 -75.34375 34.171875 -73.90625 C 33.722656 -72.476562 33.25 -70.875 32.75 -69.09375 C 32.257812 -67.320312 31.8125 -65.21875 31.40625 -62.78125 C 31 -60.351562 30.671875 -57.398438 30.421875 -53.921875 L 47.609375 -53.921875 C 47.359375 -57.398438 47.023438 -60.351562 46.609375 -62.78125 C 46.203125 -65.21875 45.753906 -67.320312 45.265625 -69.09375 C 44.773438 -70.875 44.304688 -72.476562 43.859375 -73.90625 C 43.410156 -75.34375 43.039062 -76.742188 42.75 -78.109375 C 42.46875 -79.484375 42.328125 -81.03125 42.328125 -82.75 C 42.328125 -84.257812 42.679688 -85.40625 43.390625 -86.1875 C 44.109375 -86.96875 44.988281 -87.507812 46.03125 -87.8125 C 47.082031 -88.125 48.117188 -88.285156 49.140625 -88.296875 C 50.160156 -88.316406 51 -88.328125 51.65625 -88.328125 L 67.484375 -88.328125 C 68.128906 -88.328125 68.960938 -88.316406 69.984375 -88.296875 C 71.015625 -88.285156 72.050781 -88.125 73.09375 -87.8125 C 74.132812 -87.507812 75.007812 -86.96875 75.71875 -86.1875 C 76.4375 -85.40625 76.796875 -84.257812 76.796875 -82.75 C 76.796875 -81.113281 76.660156 -79.609375 76.390625 -78.234375 C 76.128906 -76.867188 75.785156 -75.507812 75.359375 -74.15625 C 74.929688 -72.8125 74.484375 -71.300781 74.015625 -69.625 C 73.546875 -67.945312 73.09375 -65.960938 72.65625 -63.671875 C 72.226562 -61.378906 71.878906 -58.648438 71.609375 -55.484375 C 71.347656 -52.316406 71.21875 -48.546875 71.21875 -44.171875 C 71.21875 -39.796875 71.347656 -36.019531 71.609375 -32.84375 C 71.878906 -29.675781 72.226562 -26.945312 72.65625 -24.65625 C 73.09375 -22.363281 73.546875 -20.378906 74.015625 -18.703125 C 74.484375 -17.023438 74.929688 -15.507812 75.359375 -14.15625 C 75.785156 -12.8125 76.128906 -11.460938 76.390625 -10.109375 C 76.660156 -8.765625 76.796875 -7.253906 76.796875 -5.578125 C 76.796875 -4.066406 76.4375 -2.921875 75.71875 -2.140625 C 75.007812 -1.367188 74.132812 -0.828125 73.09375 -0.515625 C 72.050781 -0.210938 71.015625 -0.0507812 69.984375 -0.03125 C 68.960938 -0.0078125 68.128906 0 67.484375 0 L 51.65625 0 C 51 0 50.160156 -0.0078125 49.140625 -0.03125 C 48.117188 -0.0507812 47.082031 -0.210938 46.03125 -0.515625 C 44.988281 -0.828125 44.109375 -1.367188 43.390625 -2.140625 C 42.679688 -2.921875 42.328125 -4.066406 42.328125 -5.578125 C 42.328125 -7.253906 42.457031 -8.765625 42.71875 -10.109375 C 42.988281 -11.460938 43.335938 -12.8125 43.765625 -14.15625 C 44.191406 -15.507812 44.640625 -17.035156 45.109375 -18.734375 C 45.585938 -20.429688 46.039062 -22.414062 46.46875 -24.6875 C 46.894531 -26.957031 47.234375 -29.707031 47.484375 -32.9375 L 30.546875 -32.9375 C 30.796875 -29.707031 31.132812 -26.957031 31.5625 -24.6875 C 31.988281 -22.414062 32.4375 -20.429688 32.90625 -18.734375 C 33.375 -17.035156 33.820312 -15.507812 34.25 -14.15625 C 34.6875 -12.8125 35.035156 -11.460938 35.296875 -10.109375 C 35.566406 -8.765625 35.703125 -7.253906 35.703125 -5.578125 C 35.703125 -4.066406 35.34375 -2.921875 34.625 -2.140625 C 33.914062 -1.367188 33.035156 -0.828125 31.984375 -0.515625 C 30.941406 -0.210938 29.910156 -0.0507812 28.890625 -0.03125 C 27.867188 -0.0078125 27.03125 0 26.375 0 L 10.546875 0 C 9.890625 0 9.050781 -0.0078125 8.03125 -0.03125 C 7.007812 -0.0507812 5.976562 -0.210938 4.9375 -0.515625 C 3.894531 -0.828125 3.015625 -1.367188 2.296875 -2.140625 C 1.585938 -2.921875 1.234375 -4.066406 1.234375 -5.578125 C 1.234375 -7.253906 1.363281 -8.765625 1.625 -10.109375 C 1.894531 -11.460938 2.242188 -12.8125 2.671875 -14.15625 C 3.097656 -15.507812 3.546875 -17.023438 4.015625 -18.703125 C 4.484375 -20.378906 4.929688 -22.363281 5.359375 -24.65625 C 5.796875 -26.945312 6.144531 -29.675781 6.40625 -32.84375 C 6.675781 -36.019531 6.8125 -39.796875 6.8125 -44.171875 Z M 6.8125 -44.171875 "/></g></g></g><g fill="#e15c31" fill-opacity="1"><g transform="translate(139.002825, 90.692792)"><g/></g></g><g fill="#e15c31" fill-opacity="1"><g transform="translate(156.787962, 90.692792)"><g><path d="M 1.234375 -5.578125 C 1.234375 -7.253906 1.363281 -8.765625 1.625 -10.109375 C 1.894531 -11.460938 2.242188 -12.8125 2.671875 -14.15625 C 3.097656 -15.507812 3.546875 -17.023438 4.015625 -18.703125 C 4.484375 -20.378906 4.929688 -22.363281 5.359375 -24.65625 C 5.796875 -26.945312 6.144531 -29.675781 6.40625 -32.84375 C 6.675781 -36.019531 6.8125 -39.796875 6.8125 -44.171875 C 6.8125 -48.546875 6.675781 -52.316406 6.40625 -55.484375 C 6.144531 -58.648438 5.796875 -61.378906 5.359375 -63.671875 C 4.929688 -65.960938 4.484375 -67.945312 4.015625 -69.625 C 3.546875 -71.300781 3.097656 -72.8125 2.671875 -74.15625 C 2.242188 -75.507812 1.894531 -76.867188 1.625 -78.234375 C 1.363281 -79.609375 1.234375 -81.113281 1.234375 -82.75 C 1.234375 -84.257812 1.585938 -85.40625 2.296875 -86.1875 C 3.015625 -86.96875 3.894531 -87.507812 4.9375 -87.8125 C 5.976562 -88.125 7.007812 -88.285156 8.03125 -88.296875 C 9.050781 -88.316406 9.890625 -88.328125 10.546875 -88.328125 L 22.703125 -88.328125 C 23.515625 -88.328125 24.390625 -88.242188 25.328125 -88.078125 C 26.273438 -87.921875 27.144531 -87.617188 27.9375 -87.171875 C 28.738281 -86.722656 29.34375 -86.023438 29.75 -85.078125 L 29.75 -85.140625 L 41.953125 -58.453125 C 42.523438 -57.273438 43.140625 -56.6875 43.796875 -56.6875 C 44.492188 -56.6875 45.109375 -57.257812 45.640625 -58.40625 C 46.867188 -60.976562 48.09375 -63.734375 49.3125 -66.671875 C 50.539062 -69.617188 51.816406 -72.613281 53.140625 -75.65625 C 54.472656 -78.707031 55.898438 -81.664062 57.421875 -84.53125 C 57.742188 -85.632812 58.3125 -86.453125 59.125 -86.984375 C 59.945312 -87.515625 60.859375 -87.867188 61.859375 -88.046875 C 62.867188 -88.234375 63.800781 -88.328125 64.65625 -88.328125 L 82.328125 -88.328125 C 82.984375 -88.328125 83.820312 -88.316406 84.84375 -88.296875 C 85.863281 -88.285156 86.894531 -88.125 87.9375 -87.8125 C 88.976562 -87.507812 89.851562 -86.96875 90.5625 -86.1875 C 91.28125 -85.40625 91.640625 -84.257812 91.640625 -82.75 C 91.640625 -81.113281 91.503906 -79.609375 91.234375 -78.234375 C 90.972656 -76.867188 90.628906 -75.507812 90.203125 -74.15625 C 89.773438 -72.8125 89.328125 -71.300781 88.859375 -69.625 C 88.390625 -67.945312 87.9375 -65.960938 87.5 -63.671875 C 87.070312 -61.378906 86.722656 -58.648438 86.453125 -55.484375 C 86.191406 -52.316406 86.0625 -48.546875 86.0625 -44.171875 C 86.0625 -39.796875 86.191406 -36.019531 86.453125 -32.84375 C 86.722656 -29.675781 87.070312 -26.945312 87.5 -24.65625 C 87.9375 -22.363281 88.390625 -20.378906 88.859375 -18.703125 C 89.328125 -17.023438 89.773438 -15.507812 90.203125 -14.15625 C 90.628906 -12.8125 90.972656 -11.460938 91.234375 -10.109375 C 91.503906 -8.765625 91.640625 -7.253906 91.640625 -5.578125 C 91.640625 -4.066406 91.28125 -2.921875 90.5625 -2.140625 C 89.851562 -1.367188 88.976562 -0.828125 87.9375 -0.515625 C 86.894531 -0.210938 85.863281 -0.0507812 84.84375 -0.03125 C 83.820312 -0.0078125 82.984375 0 82.328125 0 L 66.5 0 C 65.476562 0 64.425781 -0.0390625 63.34375 -0.125 C 62.257812 -0.207031 61.242188 -0.410156 60.296875 -0.734375 C 59.359375 -1.066406 58.601562 -1.617188 58.03125 -2.390625 C 57.457031 -3.171875 57.171875 -4.234375 57.171875 -5.578125 C 57.171875 -7.253906 57.269531 -8.765625 57.46875 -10.109375 C 57.675781 -11.460938 57.941406 -12.8125 58.265625 -14.15625 C 58.597656 -15.507812 58.9375 -17.023438 59.28125 -18.703125 C 59.632812 -20.378906 59.972656 -22.363281 60.296875 -24.65625 C 60.628906 -26.945312 60.894531 -29.675781 61.09375 -32.84375 C 61.300781 -36.019531 61.40625 -39.796875 61.40625 -44.171875 L 44.96875 -15.09375 C 44.71875 -14.476562 44.316406 -14.003906 43.765625 -13.671875 C 43.210938 -13.347656 42.648438 -13.1875 42.078125 -13.1875 C 40.847656 -13.1875 39.929688 -13.800781 39.328125 -15.03125 L 24.59375 -42.9375 C 24.632812 -38.769531 24.785156 -35.160156 25.046875 -32.109375 C 25.316406 -29.066406 25.664062 -26.441406 26.09375 -24.234375 C 26.53125 -22.023438 26.984375 -20.101562 27.453125 -18.46875 C 27.921875 -16.832031 28.359375 -15.347656 28.765625 -14.015625 C 29.179688 -12.679688 29.519531 -11.347656 29.78125 -10.015625 C 30.050781 -8.691406 30.1875 -7.210938 30.1875 -5.578125 C 30.1875 -4.234375 29.898438 -3.171875 29.328125 -2.390625 C 28.753906 -1.617188 27.992188 -1.066406 27.046875 -0.734375 C 26.109375 -0.410156 25.097656 -0.207031 24.015625 -0.125 C 22.929688 -0.0390625 21.878906 0 20.859375 0 L 10.546875 0 C 9.890625 0 9.050781 -0.0078125 8.03125 -0.03125 C 7.007812 -0.0507812 5.976562 -0.210938 4.9375 -0.515625 C 3.894531 -0.828125 3.015625 -1.367188 2.296875 -2.140625 C 1.585938 -2.921875 1.234375 -4.066406 1.234375 -5.578125 Z M 1.234375 -5.578125 "/></g></g></g><g fill="#e15c31" fill-opacity="1"><g transform="translate(244.12387, 90.692792)"><g><path d="M 1.234375 -83.3125 C 1.191406 -84.78125 1.535156 -85.867188 2.265625 -86.578125 C 3.003906 -87.296875 3.875 -87.765625 4.875 -87.984375 C 5.875 -88.210938 6.703125 -88.328125 7.359375 -88.328125 L 27.96875 -88.328125 C 28.625 -88.328125 29.460938 -88.304688 30.484375 -88.265625 C 31.503906 -88.234375 32.546875 -88.0625 33.609375 -87.75 C 34.679688 -87.445312 35.582031 -86.90625 36.3125 -86.125 C 37.050781 -85.351562 37.441406 -84.226562 37.484375 -82.75 C 37.609375 -79.4375 38.085938 -76.390625 38.921875 -73.609375 C 39.765625 -70.828125 40.867188 -68.21875 42.234375 -65.78125 C 43.609375 -63.351562 45.132812 -60.953125 46.8125 -58.578125 C 49.707031 -62.585938 52.085938 -66.578125 53.953125 -70.546875 C 55.816406 -74.515625 56.75 -78.5625 56.75 -82.6875 C 56.75 -84.207031 57.03125 -85.351562 57.59375 -86.125 C 58.164062 -86.90625 58.890625 -87.445312 59.765625 -87.75 C 60.648438 -88.0625 61.539062 -88.234375 62.4375 -88.265625 C 63.34375 -88.304688 64.125 -88.328125 64.78125 -88.328125 L 79.140625 -88.328125 C 79.785156 -88.328125 80.609375 -88.210938 81.609375 -87.984375 C 82.617188 -87.765625 83.5 -87.296875 84.25 -86.578125 C 85.007812 -85.867188 85.347656 -84.78125 85.265625 -83.3125 C 85.222656 -81.875 84.882812 -80.675781 84.25 -79.71875 C 83.625 -78.757812 82.765625 -77.726562 81.671875 -76.625 C 80.585938 -75.519531 79.3125 -74.003906 77.84375 -72.078125 C 73.46875 -66.347656 69.398438 -60.617188 65.640625 -54.890625 C 61.878906 -49.171875 58.257812 -43.921875 54.78125 -39.140625 C 54.78125 -34.878906 54.960938 -31.285156 55.328125 -28.359375 C 55.703125 -25.441406 56.164062 -22.96875 56.71875 -20.9375 C 57.269531 -18.914062 57.8125 -17.117188 58.34375 -15.546875 C 58.875 -13.972656 59.320312 -12.421875 59.6875 -10.890625 C 60.050781 -9.359375 60.234375 -7.585938 60.234375 -5.578125 C 60.234375 -4.066406 59.875 -2.921875 59.15625 -2.140625 C 58.445312 -1.367188 57.570312 -0.828125 56.53125 -0.515625 C 55.488281 -0.210938 54.453125 -0.0507812 53.421875 -0.03125 C 52.398438 -0.0078125 51.566406 0 50.921875 0 L 35.09375 0 C 34.4375 0 33.597656 -0.0078125 32.578125 -0.03125 C 31.554688 -0.0507812 30.519531 -0.210938 29.46875 -0.515625 C 28.425781 -0.828125 27.546875 -1.367188 26.828125 -2.140625 C 26.117188 -2.921875 25.765625 -4.066406 25.765625 -5.578125 C 25.765625 -7.585938 25.957031 -9.359375 26.34375 -10.890625 C 26.738281 -12.421875 27.21875 -13.972656 27.78125 -15.546875 C 28.351562 -17.117188 28.914062 -18.914062 29.46875 -20.9375 C 30.019531 -22.96875 30.488281 -25.441406 30.875 -28.359375 C 31.269531 -31.285156 31.46875 -34.878906 31.46875 -39.140625 C 28.113281 -43.921875 24.566406 -49.171875 20.828125 -54.890625 C 17.085938 -60.617188 13.03125 -66.347656 8.65625 -72.078125 C 7.175781 -74.003906 5.882812 -75.519531 4.78125 -76.625 C 3.675781 -77.726562 2.816406 -78.757812 2.203125 -79.71875 C 1.585938 -80.675781 1.265625 -81.875 1.234375 -83.3125 Z M 1.234375 -83.3125 "/></g></g></g></g></g><g transform="matrix(1, 0, 0, 1, 553, 379)"><g clip-path="url(#43bba6b425)"><g fill="#e15c31" fill-opacity="1"><g transform="translate(1.194882, 128.098402)"><g><path d="M 15.015625 0 C 14.085938 0 12.894531 -0.015625 11.4375 -0.046875 C 9.976562 -0.078125 8.503906 -0.304688 7.015625 -0.734375 C 5.535156 -1.171875 4.285156 -1.941406 3.265625 -3.046875 C 2.253906 -4.160156 1.75 -5.796875 1.75 -7.953125 C 1.75 -10.335938 1.9375 -12.488281 2.3125 -14.40625 C 2.6875 -16.320312 3.179688 -18.238281 3.796875 -20.15625 C 4.410156 -22.082031 5.050781 -24.238281 5.71875 -26.625 C 6.382812 -29.007812 7.023438 -31.832031 7.640625 -35.09375 C 8.253906 -38.351562 8.75 -42.238281 9.125 -46.75 C 9.5 -51.257812 9.6875 -56.628906 9.6875 -62.859375 C 9.6875 -69.085938 9.5 -74.457031 9.125 -78.96875 C 8.75 -83.476562 8.253906 -87.363281 7.640625 -90.625 C 7.023438 -93.882812 6.382812 -96.707031 5.71875 -99.09375 C 5.050781 -101.476562 4.410156 -103.628906 3.796875 -105.546875 C 3.179688 -107.472656 2.6875 -109.410156 2.3125 -111.359375 C 1.9375 -113.316406 1.75 -115.457031 1.75 -117.78125 C 1.75 -119.9375 2.253906 -121.566406 3.265625 -122.671875 C 4.285156 -123.773438 5.535156 -124.546875 7.015625 -124.984375 C 8.503906 -125.421875 9.976562 -125.65625 11.4375 -125.6875 C 12.894531 -125.71875 14.085938 -125.734375 15.015625 -125.734375 L 47.84375 -125.734375 C 55.9375 -125.734375 63.066406 -124.21875 69.234375 -121.1875 C 75.410156 -118.164062 80.578125 -113.875 84.734375 -108.3125 C 88.898438 -102.75 92.046875 -96.125 94.171875 -88.4375 C 96.296875 -80.757812 97.359375 -72.265625 97.359375 -62.953125 C 97.359375 -53.640625 96.296875 -45.125 94.171875 -37.40625 C 92.046875 -29.695312 88.898438 -23.046875 84.734375 -17.453125 C 80.578125 -11.867188 75.410156 -7.5625 69.234375 -4.53125 C 63.066406 -1.507812 55.9375 0 47.84375 0 Z M 42.875 -94.46875 L 42.875 -31.4375 C 42.875 -29.6875 43.132812 -28.375 43.65625 -27.5 C 44.175781 -26.625 44.828125 -26.039062 45.609375 -25.75 C 46.398438 -25.46875 47.144531 -25.328125 47.84375 -25.328125 C 50.113281 -25.328125 52.207031 -26.34375 54.125 -28.375 C 56.050781 -30.414062 57.726562 -33.195312 59.15625 -36.71875 C 60.582031 -40.238281 61.6875 -44.253906 62.46875 -48.765625 C 63.257812 -53.273438 63.65625 -58.003906 63.65625 -62.953125 C 63.65625 -67.898438 63.257812 -72.628906 62.46875 -77.140625 C 61.6875 -81.648438 60.582031 -85.664062 59.15625 -89.1875 C 57.726562 -92.707031 56.050781 -95.484375 54.125 -97.515625 C 52.207031 -99.554688 50.113281 -100.578125 47.84375 -100.578125 C 47.144531 -100.578125 46.398438 -100.429688 45.609375 -100.140625 C 44.828125 -99.847656 44.175781 -99.265625 43.65625 -98.390625 C 43.132812 -97.523438 42.875 -96.21875 42.875 -94.46875 Z M 42.875 -94.46875 "/></g></g></g><g fill="#e15c31" fill-opacity="1"><g transform="translate(89.810117, 128.098402)"><g><path d="M -0.875 -62.859375 C -0.875 -69.910156 -0.394531 -76.648438 0.5625 -83.078125 C 1.53125 -89.503906 3.132812 -95.378906 5.375 -100.703125 C 7.613281 -106.035156 10.679688 -110.679688 14.578125 -114.640625 C 18.484375 -118.597656 23.359375 -121.65625 29.203125 -123.8125 C 35.054688 -125.96875 42.085938 -127.046875 50.296875 -127.046875 C 58.503906 -127.046875 65.53125 -125.96875 71.375 -123.8125 C 77.226562 -121.65625 82.101562 -118.597656 86 -114.640625 C 89.90625 -110.679688 92.976562 -106.035156 95.21875 -100.703125 C 97.457031 -95.378906 99.054688 -89.515625 100.015625 -83.109375 C 100.972656 -76.710938 101.453125 -69.960938 101.453125 -62.859375 C 101.453125 -55.816406 100.972656 -49.078125 100.015625 -42.640625 C 99.054688 -36.210938 97.457031 -30.335938 95.21875 -25.015625 C 92.976562 -19.691406 89.90625 -15.050781 86 -11.09375 C 82.101562 -7.132812 77.226562 -4.078125 71.375 -1.921875 C 65.53125 0.234375 58.503906 1.3125 50.296875 1.3125 C 42.085938 1.3125 35.054688 0.234375 29.203125 -1.921875 C 23.359375 -4.078125 18.484375 -7.132812 14.578125 -11.09375 C 10.679688 -15.050781 7.613281 -19.691406 5.375 -25.015625 C 3.132812 -30.335938 1.53125 -36.210938 0.5625 -42.640625 C -0.394531 -49.078125 -0.875 -55.816406 -0.875 -62.859375 Z M 33.09375 -62.859375 C 33.09375 -57.679688 33.3125 -52.820312 33.75 -48.28125 C 34.1875 -43.738281 35.015625 -39.75 36.234375 -36.3125 C 37.453125 -32.882812 39.179688 -30.195312 41.421875 -28.25 C 43.671875 -26.300781 46.628906 -25.328125 50.296875 -25.328125 C 53.960938 -25.328125 56.914062 -26.300781 59.15625 -28.25 C 61.394531 -30.195312 63.125 -32.882812 64.34375 -36.3125 C 65.570312 -39.75 66.40625 -43.738281 66.84375 -48.28125 C 67.28125 -52.820312 67.5 -57.679688 67.5 -62.859375 C 67.5 -68.046875 67.28125 -72.90625 66.84375 -77.4375 C 66.40625 -81.976562 65.570312 -85.976562 64.34375 -89.4375 C 63.125 -92.90625 61.394531 -95.613281 59.15625 -97.5625 C 56.914062 -99.519531 53.960938 -100.5 50.296875 -100.5 C 46.628906 -100.5 43.671875 -99.519531 41.421875 -97.5625 C 39.179688 -95.613281 37.453125 -92.90625 36.234375 -89.4375 C 35.015625 -85.976562 34.1875 -81.976562 33.75 -77.4375 C 33.3125 -72.90625 33.09375 -68.046875 33.09375 -62.859375 Z M 33.09375 -62.859375 "/></g></g></g><g fill="#e15c31" fill-opacity="1"><g transform="translate(182.528773, 128.098402)"><g><path d="M -0.875 -62.859375 C -0.875 -69.910156 -0.335938 -76.648438 0.734375 -83.078125 C 1.816406 -89.503906 3.578125 -95.378906 6.015625 -100.703125 C 8.460938 -106.035156 11.722656 -110.679688 15.796875 -114.640625 C 19.878906 -118.597656 24.898438 -121.65625 30.859375 -123.8125 C 36.828125 -125.96875 43.914062 -127.046875 52.125 -127.046875 C 60.269531 -127.046875 67.125 -126.066406 72.6875 -124.109375 C 78.25 -122.160156 82.6875 -119.582031 86 -116.375 C 89.320312 -113.175781 91.722656 -109.6875 93.203125 -105.90625 C 94.691406 -102.125 95.4375 -98.398438 95.4375 -94.734375 C 95.4375 -91.535156 94.804688 -88.609375 93.546875 -85.953125 C 92.296875 -83.304688 90.648438 -81.019531 88.609375 -79.09375 C 86.578125 -77.175781 84.3125 -75.691406 81.8125 -74.640625 C 79.3125 -73.597656 76.835938 -73.078125 74.390625 -73.078125 C 71.242188 -73.078125 68.519531 -74.125 66.21875 -76.21875 C 63.925781 -78.3125 62.78125 -81.660156 62.78125 -86.265625 C 62.78125 -89.640625 62.503906 -92.375 61.953125 -94.46875 C 61.398438 -96.5625 60.363281 -98.085938 58.84375 -99.046875 C 57.332031 -100.015625 55.09375 -100.5 52.125 -100.5 C 48.457031 -100.5 45.414062 -99.519531 43 -97.5625 C 40.582031 -95.613281 38.675781 -92.90625 37.28125 -89.4375 C 35.882812 -85.976562 34.878906 -81.976562 34.265625 -77.4375 C 33.660156 -72.90625 33.359375 -68.046875 33.359375 -62.859375 C 33.359375 -57.679688 33.660156 -52.820312 34.265625 -48.28125 C 34.878906 -43.738281 35.882812 -39.75 37.28125 -36.3125 C 38.675781 -32.882812 40.582031 -30.195312 43 -28.25 C 45.414062 -26.300781 48.457031 -25.328125 52.125 -25.328125 C 54.6875 -25.328125 56.445312 -26.226562 57.40625 -28.03125 C 58.363281 -29.832031 58.84375 -31.984375 58.84375 -34.484375 C 58.84375 -36.929688 58.550781 -39.015625 57.96875 -40.734375 C 57.394531 -42.453125 56.671875 -43.976562 55.796875 -45.3125 C 54.921875 -46.65625 54.046875 -47.921875 53.171875 -49.109375 C 52.296875 -50.304688 51.566406 -51.570312 50.984375 -52.90625 C 50.410156 -54.25 50.125 -55.820312 50.125 -57.625 C 50.125 -59.601562 50.601562 -60.941406 51.5625 -61.640625 C 52.519531 -62.335938 53.640625 -62.710938 54.921875 -62.765625 C 56.203125 -62.828125 57.304688 -62.859375 58.234375 -62.859375 L 91.328125 -62.859375 C 93.191406 -62.859375 94.570312 -62.535156 95.46875 -61.890625 C 96.375 -61.253906 96.972656 -60.53125 97.265625 -59.71875 C 97.554688 -58.90625 97.703125 -58.175781 97.703125 -57.53125 C 97.703125 -56.488281 97.363281 -55.195312 96.6875 -53.65625 C 96.019531 -52.113281 95.351562 -50.207031 94.6875 -47.9375 C 94.019531 -45.664062 93.6875 -42.867188 93.6875 -39.546875 C 93.6875 -36.410156 93.363281 -32.992188 92.71875 -29.296875 C 92.082031 -25.597656 90.921875 -21.941406 89.234375 -18.328125 C 87.546875 -14.722656 85.144531 -11.4375 82.03125 -8.46875 C 78.914062 -5.5 74.925781 -3.125 70.0625 -1.34375 C 65.207031 0.425781 59.226562 1.3125 52.125 1.3125 C 43.914062 1.3125 36.828125 0.234375 30.859375 -1.921875 C 24.898438 -4.078125 19.878906 -7.132812 15.796875 -11.09375 C 11.722656 -15.050781 8.460938 -19.691406 6.015625 -25.015625 C 3.578125 -30.335938 1.816406 -36.210938 0.734375 -42.640625 C -0.335938 -49.078125 -0.875 -55.816406 -0.875 -62.859375 Z M -0.875 -62.859375 "/></g></g></g><g fill="#e15c31" fill-opacity="1"><g transform="translate(271.493218, 128.098402)"><g><path d="M 8.46875 -103.375 C 8.46875 -107.800781 9.296875 -111.800781 10.953125 -115.375 C 12.617188 -118.957031 15.09375 -121.796875 18.375 -123.890625 C 21.664062 -125.992188 25.785156 -127.046875 30.734375 -127.046875 C 35.566406 -127.046875 39.597656 -125.992188 42.828125 -123.890625 C 46.054688 -121.796875 48.484375 -118.957031 50.109375 -115.375 C 51.742188 -111.800781 52.5625 -107.800781 52.5625 -103.375 C 52.5625 -100.8125 52.109375 -98.003906 51.203125 -94.953125 C 50.304688 -91.898438 49.171875 -88.710938 47.796875 -85.390625 C 46.429688 -82.078125 45.035156 -78.726562 43.609375 -75.34375 C 42.179688 -71.96875 40.914062 -68.679688 39.8125 -65.484375 C 38.59375 -61.929688 37.675781 -58.597656 37.0625 -55.484375 C 36.445312 -52.367188 35.90625 -49.632812 35.4375 -47.28125 C 34.976562 -44.925781 34.398438 -43.078125 33.703125 -41.734375 C 33.003906 -40.398438 31.957031 -39.734375 30.5625 -39.734375 C 29.164062 -39.734375 28.117188 -40.398438 27.421875 -41.734375 C 26.722656 -43.078125 26.140625 -44.925781 25.671875 -47.28125 C 25.203125 -49.632812 24.660156 -52.367188 24.046875 -55.484375 C 23.441406 -58.597656 22.523438 -61.929688 21.296875 -65.484375 C 20.191406 -68.679688 18.910156 -71.96875 17.453125 -75.34375 C 16.003906 -78.726562 14.59375 -82.078125 13.21875 -85.390625 C 11.851562 -88.710938 10.71875 -91.898438 9.8125 -94.953125 C 8.914062 -98.003906 8.46875 -100.8125 8.46875 -103.375 Z M 30.640625 1.3125 C 29.484375 1.3125 27.84375 0.875 25.71875 0 C 23.59375 -0.875 21.304688 -2.082031 18.859375 -3.625 C 16.410156 -5.164062 14.082031 -7 11.875 -9.125 C 9.664062 -11.25 7.859375 -13.546875 6.453125 -16.015625 C 5.054688 -18.492188 4.359375 -21.070312 4.359375 -23.75 C 4.359375 -26.488281 4.941406 -28.875 6.109375 -30.90625 C 7.273438 -32.945312 8.832031 -34.546875 10.78125 -35.703125 C 12.726562 -36.867188 14.8125 -37.453125 17.03125 -37.453125 C 19.125 -37.453125 21 -37.03125 22.65625 -36.1875 C 24.3125 -35.34375 25.804688 -34.3125 27.140625 -33.09375 C 28.484375 -31.875 29.648438 -30.625 30.640625 -29.34375 C 31.628906 -30.625 32.789062 -31.875 34.125 -33.09375 C 35.46875 -34.3125 36.984375 -35.34375 38.671875 -36.1875 C 40.367188 -37.03125 42.234375 -37.453125 44.265625 -37.453125 C 46.535156 -37.453125 48.628906 -36.867188 50.546875 -35.703125 C 52.472656 -34.546875 54.015625 -32.945312 55.171875 -30.90625 C 56.335938 -28.875 56.921875 -26.488281 56.921875 -23.75 C 56.921875 -21.070312 56.222656 -18.492188 54.828125 -16.015625 C 53.429688 -13.546875 51.625 -11.25 49.40625 -9.125 C 47.195312 -7 44.867188 -5.164062 42.421875 -3.625 C 39.984375 -2.082031 37.703125 -0.875 35.578125 0 C 33.453125 0.875 31.804688 1.3125 30.640625 1.3125 Z M 30.640625 1.3125 "/></g></g></g></g></g></svg>