<svg xmlns="http://www.w3.org/2000/svg" xmlns:xlink="http://www.w3.org/1999/xlink" width="500" zoomAndPan="magnify" viewBox="0 0 375 374.999991" height="500" preserveAspectRatio="xMidYMid meet" version="1.0"><defs><g/><clipPath id="66d70eb69c"><path d="M 1 0.320312 L 35 0.320312 L 35 43 L 1 43 Z M 1 0.320312 " clip-rule="nonzero"/></clipPath><clipPath id="2dd9ab28ed"><rect x="0" width="155" y="0" height="56"/></clipPath><clipPath id="2b3bab01d2"><path d="M 41 0.679688 L 89 0.679688 L 89 61 L 41 61 Z M 41 0.679688 " clip-rule="nonzero"/></clipPath><clipPath id="17214e24c1"><path d="M 84 0.679688 L 130 0.679688 L 130 61 L 84 61 Z M 84 0.679688 " clip-rule="nonzero"/></clipPath><clipPath id="ff84f589df"><path d="M 127 0.679688 L 153 0.679688 L 153 61 L 127 61 Z M 127 0.679688 " clip-rule="nonzero"/></clipPath><clipPath id="4965764ebb"><rect x="0" width="154" y="0" height="79"/></clipPath><clipPath id="38d3676ef5"><rect x="0" width="228" y="0" height="27"/></clipPath></defs><g transform="matrix(1, 0, 0, 1, 110, 130)"><g clip-path="url(#2dd9ab28ed)"><g clip-path="url(#66d70eb69c)"><g fill="#4967ea" fill-opacity="1"><g transform="translate(1.285085, 42.079986)"><g><path d="M -0.28125 -20.453125 C -0.28125 -22.742188 -0.125 -24.9375 0.1875 -27.03125 C 0.5 -29.125 1.019531 -31.035156 1.75 -32.765625 C 2.476562 -34.492188 3.472656 -36.003906 4.734375 -37.296875 C 6.003906 -38.585938 7.59375 -39.582031 9.5 -40.28125 C 11.40625 -40.976562 13.691406 -41.328125 16.359375 -41.328125 C 19.035156 -41.328125 21.320312 -40.976562 23.21875 -40.28125 C 25.125 -39.582031 26.710938 -38.585938 27.984375 -37.296875 C 29.253906 -36.003906 30.253906 -34.492188 30.984375 -32.765625 C 31.710938 -31.035156 32.234375 -29.128906 32.546875 -27.046875 C 32.859375 -24.960938 33.015625 -22.765625 33.015625 -20.453125 C 33.015625 -18.160156 32.859375 -15.96875 32.546875 -13.875 C 32.234375 -11.78125 31.710938 -9.867188 30.984375 -8.140625 C 30.253906 -6.410156 29.253906 -4.898438 27.984375 -3.609375 C 26.710938 -2.316406 25.125 -1.320312 23.21875 -0.625 C 21.320312 0.0703125 19.035156 0.421875 16.359375 0.421875 C 13.691406 0.421875 11.40625 0.0703125 9.5 -0.625 C 7.59375 -1.320312 6.003906 -2.316406 4.734375 -3.609375 C 3.472656 -4.898438 2.476562 -6.410156 1.75 -8.140625 C 1.019531 -9.867188 0.5 -11.78125 0.1875 -13.875 C -0.125 -15.96875 -0.28125 -18.160156 -0.28125 -20.453125 Z M 10.765625 -20.453125 C 10.765625 -18.765625 10.832031 -17.179688 10.96875 -15.703125 C 11.113281 -14.234375 11.382812 -12.9375 11.78125 -11.8125 C 12.1875 -10.695312 12.753906 -9.820312 13.484375 -9.1875 C 14.210938 -8.550781 15.171875 -8.234375 16.359375 -8.234375 C 17.554688 -8.234375 18.519531 -8.550781 19.25 -9.1875 C 19.976562 -9.820312 20.539062 -10.695312 20.9375 -11.8125 C 21.332031 -12.9375 21.597656 -14.234375 21.734375 -15.703125 C 21.878906 -17.179688 21.953125 -18.765625 21.953125 -20.453125 C 21.953125 -22.140625 21.878906 -23.71875 21.734375 -25.1875 C 21.597656 -26.664062 21.332031 -27.96875 20.9375 -29.09375 C 20.539062 -30.226562 19.976562 -31.113281 19.25 -31.75 C 18.519531 -32.382812 17.554688 -32.703125 16.359375 -32.703125 C 15.171875 -32.703125 14.210938 -32.382812 13.484375 -31.75 C 12.753906 -31.113281 12.1875 -30.226562 11.78125 -29.09375 C 11.382812 -27.96875 11.113281 -26.664062 10.96875 -25.1875 C 10.832031 -23.71875 10.765625 -22.140625 10.765625 -20.453125 Z M 10.765625 -20.453125 "/></g></g></g></g><g fill="#4967ea" fill-opacity="1"><g transform="translate(31.439541, 42.079986)"><g><path d="M 3.15625 -20.453125 C 3.15625 -22.472656 3.09375 -24.21875 2.96875 -25.6875 C 2.84375 -27.15625 2.679688 -28.421875 2.484375 -29.484375 C 2.285156 -30.546875 2.078125 -31.460938 1.859375 -32.234375 C 1.640625 -33.015625 1.429688 -33.71875 1.234375 -34.34375 C 1.035156 -34.96875 0.875 -35.597656 0.75 -36.234375 C 0.625 -36.867188 0.5625 -37.5625 0.5625 -38.3125 C 0.5625 -39.019531 0.726562 -39.550781 1.0625 -39.90625 C 1.394531 -40.269531 1.800781 -40.519531 2.28125 -40.65625 C 2.769531 -40.800781 3.25 -40.878906 3.71875 -40.890625 C 4.195312 -40.898438 4.585938 -40.90625 4.890625 -40.90625 L 12.21875 -40.90625 C 12.519531 -40.90625 12.90625 -40.898438 13.375 -40.890625 C 13.851562 -40.878906 14.332031 -40.800781 14.8125 -40.65625 C 15.289062 -40.519531 15.695312 -40.269531 16.03125 -39.90625 C 16.363281 -39.550781 16.53125 -39.019531 16.53125 -38.3125 C 16.53125 -37.519531 16.460938 -36.804688 16.328125 -36.171875 C 16.203125 -35.535156 16.035156 -34.882812 15.828125 -34.21875 C 15.617188 -33.5625 15.398438 -32.820312 15.171875 -32 C 14.941406 -31.175781 14.734375 -30.203125 14.546875 -29.078125 C 14.359375 -27.953125 14.207031 -26.582031 14.09375 -24.96875 L 22.046875 -24.96875 C 21.929688 -26.582031 21.773438 -27.953125 21.578125 -29.078125 C 21.390625 -30.203125 21.179688 -31.175781 20.953125 -32 C 20.734375 -32.820312 20.519531 -33.5625 20.3125 -34.21875 C 20.101562 -34.882812 19.929688 -35.535156 19.796875 -36.171875 C 19.660156 -36.804688 19.59375 -37.519531 19.59375 -38.3125 C 19.59375 -39.019531 19.757812 -39.550781 20.09375 -39.90625 C 20.425781 -40.269531 20.832031 -40.519531 21.3125 -40.65625 C 21.800781 -40.800781 22.28125 -40.878906 22.75 -40.890625 C 23.226562 -40.898438 23.617188 -40.90625 23.921875 -40.90625 L 31.25 -40.90625 C 31.550781 -40.90625 31.9375 -40.898438 32.40625 -40.890625 C 32.882812 -40.878906 33.363281 -40.800781 33.84375 -40.65625 C 34.320312 -40.519531 34.726562 -40.269531 35.0625 -39.90625 C 35.394531 -39.550781 35.5625 -39.019531 35.5625 -38.3125 C 35.5625 -37.5625 35.5 -36.867188 35.375 -36.234375 C 35.25 -35.597656 35.085938 -34.96875 34.890625 -34.34375 C 34.691406 -33.71875 34.484375 -33.015625 34.265625 -32.234375 C 34.054688 -31.460938 33.847656 -30.546875 33.640625 -29.484375 C 33.441406 -28.421875 33.28125 -27.15625 33.15625 -25.6875 C 33.039062 -24.21875 32.984375 -22.472656 32.984375 -20.453125 C 32.984375 -18.421875 33.039062 -16.671875 33.15625 -15.203125 C 33.28125 -13.742188 33.441406 -12.484375 33.640625 -11.421875 C 33.847656 -10.359375 34.054688 -9.4375 34.265625 -8.65625 C 34.484375 -7.882812 34.691406 -7.1875 34.890625 -6.5625 C 35.085938 -5.9375 35.25 -5.3125 35.375 -4.6875 C 35.5 -4.0625 35.5625 -3.359375 35.5625 -2.578125 C 35.5625 -1.878906 35.394531 -1.347656 35.0625 -0.984375 C 34.726562 -0.628906 34.320312 -0.378906 33.84375 -0.234375 C 33.363281 -0.0976562 32.882812 -0.0234375 32.40625 -0.015625 C 31.9375 -0.00390625 31.550781 0 31.25 0 L 23.921875 0 C 23.617188 0 23.226562 -0.00390625 22.75 -0.015625 C 22.28125 -0.0234375 21.800781 -0.0976562 21.3125 -0.234375 C 20.832031 -0.378906 20.425781 -0.628906 20.09375 -0.984375 C 19.757812 -1.347656 19.59375 -1.878906 19.59375 -2.578125 C 19.59375 -3.359375 19.65625 -4.0625 19.78125 -4.6875 C 19.90625 -5.3125 20.066406 -5.9375 20.265625 -6.5625 C 20.460938 -7.1875 20.671875 -7.890625 20.890625 -8.671875 C 21.109375 -9.460938 21.316406 -10.382812 21.515625 -11.4375 C 21.710938 -12.488281 21.867188 -13.757812 21.984375 -15.25 L 14.140625 -15.25 C 14.253906 -13.757812 14.410156 -12.488281 14.609375 -11.4375 C 14.804688 -10.382812 15.015625 -9.460938 15.234375 -8.671875 C 15.453125 -7.890625 15.660156 -7.1875 15.859375 -6.5625 C 16.054688 -5.9375 16.21875 -5.3125 16.34375 -4.6875 C 16.46875 -4.0625 16.53125 -3.359375 16.53125 -2.578125 C 16.53125 -1.878906 16.363281 -1.347656 16.03125 -0.984375 C 15.695312 -0.628906 15.289062 -0.378906 14.8125 -0.234375 C 14.332031 -0.0976562 13.851562 -0.0234375 13.375 -0.015625 C 12.90625 -0.00390625 12.519531 0 12.21875 0 L 4.890625 0 C 4.585938 0 4.195312 -0.00390625 3.71875 -0.015625 C 3.25 -0.0234375 2.769531 -0.0976562 2.28125 -0.234375 C 1.800781 -0.378906 1.394531 -0.628906 1.0625 -0.984375 C 0.726562 -1.347656 0.5625 -1.878906 0.5625 -2.578125 C 0.5625 -3.359375 0.625 -4.0625 0.75 -4.6875 C 0.875 -5.3125 1.035156 -5.9375 1.234375 -6.5625 C 1.429688 -7.1875 1.640625 -7.882812 1.859375 -8.65625 C 2.078125 -9.4375 2.285156 -10.359375 2.484375 -11.421875 C 2.679688 -12.484375 2.84375 -13.742188 2.96875 -15.203125 C 3.09375 -16.671875 3.15625 -18.421875 3.15625 -20.453125 Z M 3.15625 -20.453125 "/></g></g></g><g fill="#4967ea" fill-opacity="1"><g transform="translate(73.235205, 42.079986)"><g><path d="M 0.5625 -2.578125 C 0.5625 -3.359375 0.625 -4.0625 0.75 -4.6875 C 0.875 -5.3125 1.035156 -5.9375 1.234375 -6.5625 C 1.429688 -7.1875 1.640625 -7.882812 1.859375 -8.65625 C 2.078125 -9.4375 2.285156 -10.359375 2.484375 -11.421875 C 2.679688 -12.484375 2.84375 -13.742188 2.96875 -15.203125 C 3.09375 -16.671875 3.15625 -18.421875 3.15625 -20.453125 C 3.15625 -22.472656 3.09375 -24.21875 2.96875 -25.6875 C 2.84375 -27.15625 2.679688 -28.421875 2.484375 -29.484375 C 2.285156 -30.546875 2.078125 -31.460938 1.859375 -32.234375 C 1.640625 -33.015625 1.429688 -33.71875 1.234375 -34.34375 C 1.035156 -34.96875 0.875 -35.597656 0.75 -36.234375 C 0.625 -36.867188 0.5625 -37.5625 0.5625 -38.3125 C 0.5625 -39.019531 0.726562 -39.550781 1.0625 -39.90625 C 1.394531 -40.269531 1.800781 -40.519531 2.28125 -40.65625 C 2.769531 -40.800781 3.25 -40.878906 3.71875 -40.890625 C 4.195312 -40.898438 4.585938 -40.90625 4.890625 -40.90625 L 10.515625 -40.90625 C 10.890625 -40.90625 11.296875 -40.863281 11.734375 -40.78125 C 12.171875 -40.707031 12.570312 -40.566406 12.9375 -40.359375 C 13.3125 -40.148438 13.59375 -39.832031 13.78125 -39.40625 L 13.78125 -39.421875 L 19.4375 -27.078125 C 19.695312 -26.523438 19.976562 -26.25 20.28125 -26.25 C 20.601562 -26.25 20.890625 -26.515625 21.140625 -27.046875 C 21.703125 -28.234375 22.265625 -29.507812 22.828125 -30.875 C 23.398438 -32.238281 23.992188 -33.625 24.609375 -35.03125 C 25.222656 -36.445312 25.882812 -37.816406 26.59375 -39.140625 C 26.738281 -39.648438 27 -40.03125 27.375 -40.28125 C 27.757812 -40.53125 28.179688 -40.695312 28.640625 -40.78125 C 29.109375 -40.863281 29.539062 -40.90625 29.9375 -40.90625 L 38.125 -40.90625 C 38.425781 -40.90625 38.8125 -40.898438 39.28125 -40.890625 C 39.757812 -40.878906 40.238281 -40.800781 40.71875 -40.65625 C 41.195312 -40.519531 41.601562 -40.269531 41.9375 -39.90625 C 42.269531 -39.550781 42.4375 -39.019531 42.4375 -38.3125 C 42.4375 -37.5625 42.375 -36.867188 42.25 -36.234375 C 42.125 -35.597656 41.960938 -34.96875 41.765625 -34.34375 C 41.566406 -33.71875 41.359375 -33.015625 41.140625 -32.234375 C 40.921875 -31.460938 40.710938 -30.546875 40.515625 -29.484375 C 40.316406 -28.421875 40.15625 -27.15625 40.03125 -25.6875 C 39.914062 -24.21875 39.859375 -22.472656 39.859375 -20.453125 C 39.859375 -18.421875 39.914062 -16.671875 40.03125 -15.203125 C 40.15625 -13.742188 40.316406 -12.484375 40.515625 -11.421875 C 40.710938 -10.359375 40.921875 -9.4375 41.140625 -8.65625 C 41.359375 -7.882812 41.566406 -7.1875 41.765625 -6.5625 C 41.960938 -5.9375 42.125 -5.3125 42.25 -4.6875 C 42.375 -4.0625 42.4375 -3.359375 42.4375 -2.578125 C 42.4375 -1.878906 42.269531 -1.347656 41.9375 -0.984375 C 41.601562 -0.628906 41.195312 -0.378906 40.71875 -0.234375 C 40.238281 -0.0976562 39.757812 -0.0234375 39.28125 -0.015625 C 38.8125 -0.00390625 38.425781 0 38.125 0 L 30.796875 0 C 30.316406 0 29.828125 -0.015625 29.328125 -0.046875 C 28.828125 -0.0859375 28.359375 -0.179688 27.921875 -0.328125 C 27.484375 -0.484375 27.128906 -0.738281 26.859375 -1.09375 C 26.597656 -1.457031 26.46875 -1.953125 26.46875 -2.578125 C 26.46875 -3.359375 26.515625 -4.0625 26.609375 -4.6875 C 26.710938 -5.3125 26.835938 -5.9375 26.984375 -6.5625 C 27.140625 -7.1875 27.296875 -7.882812 27.453125 -8.65625 C 27.617188 -9.4375 27.773438 -10.359375 27.921875 -11.421875 C 28.078125 -12.484375 28.203125 -13.742188 28.296875 -15.203125 C 28.390625 -16.671875 28.4375 -18.421875 28.4375 -20.453125 L 20.828125 -6.984375 C 20.710938 -6.703125 20.523438 -6.484375 20.265625 -6.328125 C 20.015625 -6.179688 19.753906 -6.109375 19.484375 -6.109375 C 18.921875 -6.109375 18.492188 -6.390625 18.203125 -6.953125 L 11.390625 -19.890625 C 11.410156 -17.953125 11.476562 -16.273438 11.59375 -14.859375 C 11.71875 -13.453125 11.878906 -12.238281 12.078125 -11.21875 C 12.285156 -10.195312 12.492188 -9.304688 12.703125 -8.546875 C 12.921875 -7.785156 13.125 -7.097656 13.3125 -6.484375 C 13.507812 -5.867188 13.664062 -5.253906 13.78125 -4.640625 C 13.90625 -4.023438 13.96875 -3.335938 13.96875 -2.578125 C 13.96875 -1.953125 13.835938 -1.457031 13.578125 -1.09375 C 13.316406 -0.738281 12.96875 -0.484375 12.53125 -0.328125 C 12.09375 -0.179688 11.625 -0.0859375 11.125 -0.046875 C 10.625 -0.015625 10.132812 0 9.65625 0 L 4.890625 0 C 4.585938 0 4.195312 -0.00390625 3.71875 -0.015625 C 3.25 -0.0234375 2.769531 -0.0976562 2.28125 -0.234375 C 1.800781 -0.378906 1.394531 -0.628906 1.0625 -0.984375 C 0.726562 -1.347656 0.5625 -1.878906 0.5625 -2.578125 Z M 0.5625 -2.578125 "/></g></g></g><g fill="#4967ea" fill-opacity="1"><g transform="translate(113.668498, 42.079986)"><g><path d="M 0.5625 -38.578125 C 0.550781 -39.253906 0.710938 -39.757812 1.046875 -40.09375 C 1.390625 -40.425781 1.789062 -40.644531 2.25 -40.75 C 2.71875 -40.851562 3.101562 -40.90625 3.40625 -40.90625 L 12.953125 -40.90625 C 13.253906 -40.90625 13.640625 -40.894531 14.109375 -40.875 C 14.585938 -40.851562 15.070312 -40.769531 15.5625 -40.625 C 16.0625 -40.488281 16.476562 -40.238281 16.8125 -39.875 C 17.15625 -39.519531 17.335938 -39 17.359375 -38.3125 C 17.410156 -36.78125 17.628906 -35.367188 18.015625 -34.078125 C 18.410156 -32.796875 18.925781 -31.59375 19.5625 -30.46875 C 20.195312 -29.34375 20.898438 -28.226562 21.671875 -27.125 C 23.015625 -28.976562 24.117188 -30.820312 24.984375 -32.65625 C 25.847656 -34.5 26.28125 -36.378906 26.28125 -38.296875 C 26.28125 -38.992188 26.410156 -39.519531 26.671875 -39.875 C 26.941406 -40.238281 27.28125 -40.488281 27.6875 -40.625 C 28.09375 -40.769531 28.503906 -40.851562 28.921875 -40.875 C 29.335938 -40.894531 29.695312 -40.90625 30 -40.90625 L 36.640625 -40.90625 C 36.941406 -40.90625 37.320312 -40.851562 37.78125 -40.75 C 38.25 -40.644531 38.660156 -40.425781 39.015625 -40.09375 C 39.367188 -39.757812 39.523438 -39.253906 39.484375 -38.578125 C 39.460938 -37.910156 39.304688 -37.351562 39.015625 -36.90625 C 38.722656 -36.46875 38.320312 -35.992188 37.8125 -35.484375 C 37.3125 -34.972656 36.722656 -34.269531 36.046875 -33.375 C 34.023438 -30.726562 32.140625 -28.078125 30.390625 -25.421875 C 28.648438 -22.773438 26.972656 -20.34375 25.359375 -18.125 C 25.359375 -16.15625 25.441406 -14.492188 25.609375 -13.140625 C 25.785156 -11.785156 26 -10.640625 26.25 -9.703125 C 26.507812 -8.765625 26.765625 -7.929688 27.015625 -7.203125 C 27.265625 -6.472656 27.472656 -5.753906 27.640625 -5.046875 C 27.804688 -4.335938 27.890625 -3.515625 27.890625 -2.578125 C 27.890625 -1.878906 27.722656 -1.347656 27.390625 -0.984375 C 27.066406 -0.628906 26.660156 -0.378906 26.171875 -0.234375 C 25.691406 -0.0976562 25.210938 -0.0234375 24.734375 -0.015625 C 24.265625 -0.00390625 23.878906 0 23.578125 0 L 16.25 0 C 15.945312 0 15.554688 -0.00390625 15.078125 -0.015625 C 14.609375 -0.0234375 14.128906 -0.0976562 13.640625 -0.234375 C 13.160156 -0.378906 12.753906 -0.628906 12.421875 -0.984375 C 12.097656 -1.347656 11.9375 -1.878906 11.9375 -2.578125 C 11.9375 -3.515625 12.023438 -4.335938 12.203125 -5.046875 C 12.378906 -5.753906 12.597656 -6.472656 12.859375 -7.203125 C 13.128906 -7.929688 13.390625 -8.765625 13.640625 -9.703125 C 13.898438 -10.640625 14.117188 -11.785156 14.296875 -13.140625 C 14.484375 -14.492188 14.578125 -16.15625 14.578125 -18.125 C 13.023438 -20.34375 11.378906 -22.773438 9.640625 -25.421875 C 7.910156 -28.078125 6.03125 -30.726562 4 -33.375 C 3.320312 -34.269531 2.726562 -34.972656 2.21875 -35.484375 C 1.707031 -35.992188 1.304688 -36.46875 1.015625 -36.90625 C 0.734375 -37.351562 0.582031 -37.910156 0.5625 -38.578125 Z M 0.5625 -38.578125 "/></g></g></g></g></g><g transform="matrix(1, 0, 0, 1, 110, 175)"><g clip-path="url(#4965764ebb)"><g fill="#4967ea" fill-opacity="1"><g transform="translate(0.738398, 59.767769)"><g><path d="M 6.953125 0 C 6.523438 0 5.972656 -0.00390625 5.296875 -0.015625 C 4.617188 -0.0351562 3.9375 -0.144531 3.25 -0.34375 C 2.5625 -0.539062 1.984375 -0.894531 1.515625 -1.40625 C 1.046875 -1.925781 0.8125 -2.679688 0.8125 -3.671875 C 0.8125 -4.773438 0.894531 -5.769531 1.0625 -6.65625 C 1.238281 -7.550781 1.46875 -8.441406 1.75 -9.328125 C 2.039062 -10.222656 2.335938 -11.222656 2.640625 -12.328125 C 2.953125 -13.429688 3.25 -14.738281 3.53125 -16.25 C 3.820312 -17.757812 4.050781 -19.554688 4.21875 -21.640625 C 4.394531 -23.734375 4.484375 -26.222656 4.484375 -29.109375 C 4.484375 -31.984375 4.394531 -34.460938 4.21875 -36.546875 C 4.050781 -38.640625 3.820312 -40.441406 3.53125 -41.953125 C 3.25 -43.460938 2.953125 -44.769531 2.640625 -45.875 C 2.335938 -46.976562 2.039062 -47.972656 1.75 -48.859375 C 1.46875 -49.753906 1.238281 -50.648438 1.0625 -51.546875 C 0.894531 -52.453125 0.8125 -53.445312 0.8125 -54.53125 C 0.8125 -55.53125 1.046875 -56.285156 1.515625 -56.796875 C 1.984375 -57.304688 2.5625 -57.660156 3.25 -57.859375 C 3.9375 -58.066406 4.617188 -58.175781 5.296875 -58.1875 C 5.972656 -58.195312 6.523438 -58.203125 6.953125 -58.203125 L 22.15625 -58.203125 C 25.894531 -58.203125 29.191406 -57.5 32.046875 -56.09375 C 34.910156 -54.695312 37.304688 -52.710938 39.234375 -50.140625 C 41.160156 -47.566406 42.613281 -44.5 43.59375 -40.9375 C 44.582031 -37.382812 45.078125 -33.453125 45.078125 -29.140625 C 45.078125 -24.828125 44.582031 -20.882812 43.59375 -17.3125 C 42.613281 -13.75 41.160156 -10.671875 39.234375 -8.078125 C 37.304688 -5.492188 34.910156 -3.5 32.046875 -2.09375 C 29.191406 -0.695312 25.894531 0 22.15625 0 Z M 19.84375 -43.734375 L 19.84375 -14.546875 C 19.84375 -13.742188 19.960938 -13.140625 20.203125 -12.734375 C 20.453125 -12.328125 20.757812 -12.054688 21.125 -11.921875 C 21.488281 -11.785156 21.832031 -11.71875 22.15625 -11.71875 C 23.207031 -11.71875 24.175781 -12.1875 25.0625 -13.125 C 25.945312 -14.070312 26.71875 -15.359375 27.375 -16.984375 C 28.039062 -18.617188 28.554688 -20.476562 28.921875 -22.5625 C 29.285156 -24.65625 29.46875 -26.847656 29.46875 -29.140625 C 29.46875 -31.429688 29.285156 -33.617188 28.921875 -35.703125 C 28.554688 -37.796875 28.039062 -39.65625 27.375 -41.28125 C 26.71875 -42.914062 25.945312 -44.203125 25.0625 -45.140625 C 24.175781 -46.085938 23.207031 -46.5625 22.15625 -46.5625 C 21.832031 -46.5625 21.488281 -46.492188 21.125 -46.359375 C 20.757812 -46.222656 20.453125 -45.953125 20.203125 -45.546875 C 19.960938 -45.148438 19.84375 -44.546875 19.84375 -43.734375 Z M 19.84375 -43.734375 "/></g></g></g><g clip-path="url(#2b3bab01d2)"><g fill="#4967ea" fill-opacity="1"><g transform="translate(41.763969, 59.767769)"><g><path d="M -0.40625 -29.109375 C -0.40625 -32.367188 -0.179688 -35.484375 0.265625 -38.453125 C 0.710938 -41.429688 1.453125 -44.15625 2.484375 -46.625 C 3.523438 -49.09375 4.945312 -51.242188 6.75 -53.078125 C 8.550781 -54.910156 10.804688 -56.320312 13.515625 -57.3125 C 16.222656 -58.3125 19.476562 -58.8125 23.28125 -58.8125 C 27.082031 -58.8125 30.335938 -58.3125 33.046875 -57.3125 C 35.753906 -56.320312 38.007812 -54.910156 39.8125 -53.078125 C 41.625 -51.242188 43.046875 -49.09375 44.078125 -46.625 C 45.117188 -44.15625 45.859375 -41.4375 46.296875 -38.46875 C 46.742188 -35.507812 46.96875 -32.390625 46.96875 -29.109375 C 46.96875 -25.847656 46.742188 -22.726562 46.296875 -19.75 C 45.859375 -16.769531 45.117188 -14.046875 44.078125 -11.578125 C 43.046875 -9.109375 41.625 -6.957031 39.8125 -5.125 C 38.007812 -3.300781 35.753906 -1.890625 33.046875 -0.890625 C 30.335938 0.109375 27.082031 0.609375 23.28125 0.609375 C 19.476562 0.609375 16.222656 0.109375 13.515625 -0.890625 C 10.804688 -1.890625 8.550781 -3.300781 6.75 -5.125 C 4.945312 -6.957031 3.523438 -9.109375 2.484375 -11.578125 C 1.453125 -14.046875 0.710938 -16.769531 0.265625 -19.75 C -0.179688 -22.726562 -0.40625 -25.847656 -0.40625 -29.109375 Z M 15.3125 -29.109375 C 15.3125 -26.703125 15.410156 -24.445312 15.609375 -22.34375 C 15.816406 -20.25 16.203125 -18.40625 16.765625 -16.8125 C 17.335938 -15.226562 18.140625 -13.984375 19.171875 -13.078125 C 20.210938 -12.171875 21.582031 -11.71875 23.28125 -11.71875 C 24.976562 -11.71875 26.34375 -12.171875 27.375 -13.078125 C 28.414062 -13.984375 29.21875 -15.226562 29.78125 -16.8125 C 30.351562 -18.40625 30.738281 -20.25 30.9375 -22.34375 C 31.144531 -24.445312 31.25 -26.703125 31.25 -29.109375 C 31.25 -31.503906 31.144531 -33.75 30.9375 -35.84375 C 30.738281 -37.945312 30.351562 -39.800781 29.78125 -41.40625 C 29.21875 -43.007812 28.414062 -44.265625 27.375 -45.171875 C 26.34375 -46.078125 24.976562 -46.53125 23.28125 -46.53125 C 21.582031 -46.53125 20.210938 -46.078125 19.171875 -45.171875 C 18.140625 -44.265625 17.335938 -43.007812 16.765625 -41.40625 C 16.203125 -39.800781 15.816406 -37.945312 15.609375 -35.84375 C 15.410156 -33.75 15.3125 -31.503906 15.3125 -29.109375 Z M 15.3125 -29.109375 "/></g></g></g></g><g clip-path="url(#17214e24c1)"><g fill="#4967ea" fill-opacity="1"><g transform="translate(84.689273, 59.767769)"><g><path d="M -0.40625 -29.109375 C -0.40625 -32.367188 -0.15625 -35.484375 0.34375 -38.453125 C 0.84375 -41.429688 1.65625 -44.15625 2.78125 -46.625 C 3.914062 -49.09375 5.425781 -51.242188 7.3125 -53.078125 C 9.195312 -54.910156 11.519531 -56.320312 14.28125 -57.3125 C 17.050781 -58.3125 20.332031 -58.8125 24.125 -58.8125 C 27.90625 -58.8125 31.082031 -58.359375 33.65625 -57.453125 C 36.226562 -56.554688 38.28125 -55.363281 39.8125 -53.875 C 41.351562 -52.394531 42.46875 -50.78125 43.15625 -49.03125 C 43.84375 -47.28125 44.1875 -45.554688 44.1875 -43.859375 C 44.1875 -42.378906 43.894531 -41.023438 43.3125 -39.796875 C 42.726562 -38.566406 41.960938 -37.503906 41.015625 -36.609375 C 40.078125 -35.722656 39.03125 -35.035156 37.875 -34.546875 C 36.71875 -34.066406 35.570312 -33.828125 34.4375 -33.828125 C 32.976562 -33.828125 31.71875 -34.3125 30.65625 -35.28125 C 29.59375 -36.257812 29.0625 -37.8125 29.0625 -39.9375 C 29.0625 -41.5 28.929688 -42.765625 28.671875 -43.734375 C 28.421875 -44.703125 27.941406 -45.410156 27.234375 -45.859375 C 26.535156 -46.304688 25.5 -46.53125 24.125 -46.53125 C 22.425781 -46.53125 21.019531 -46.078125 19.90625 -45.171875 C 18.789062 -44.265625 17.910156 -43.007812 17.265625 -41.40625 C 16.617188 -39.800781 16.148438 -37.945312 15.859375 -35.84375 C 15.578125 -33.75 15.4375 -31.503906 15.4375 -29.109375 C 15.4375 -26.703125 15.578125 -24.445312 15.859375 -22.34375 C 16.148438 -20.25 16.617188 -18.40625 17.265625 -16.8125 C 17.910156 -15.226562 18.789062 -13.984375 19.90625 -13.078125 C 21.019531 -12.171875 22.425781 -11.71875 24.125 -11.71875 C 25.3125 -11.71875 26.128906 -12.132812 26.578125 -12.96875 C 27.023438 -13.8125 27.25 -14.8125 27.25 -15.96875 C 27.25 -17.101562 27.113281 -18.066406 26.84375 -18.859375 C 26.570312 -19.648438 26.234375 -20.351562 25.828125 -20.96875 C 25.421875 -21.59375 25.015625 -22.179688 24.609375 -22.734375 C 24.210938 -23.285156 23.878906 -23.867188 23.609375 -24.484375 C 23.335938 -25.109375 23.203125 -25.835938 23.203125 -26.671875 C 23.203125 -27.585938 23.421875 -28.207031 23.859375 -28.53125 C 24.304688 -28.851562 24.828125 -29.03125 25.421875 -29.0625 C 26.015625 -29.09375 26.53125 -29.109375 26.96875 -29.109375 L 42.28125 -29.109375 C 43.144531 -29.109375 43.785156 -28.957031 44.203125 -28.65625 C 44.617188 -28.363281 44.894531 -28.023438 45.03125 -27.640625 C 45.164062 -27.265625 45.234375 -26.929688 45.234375 -26.640625 C 45.234375 -26.148438 45.078125 -25.546875 44.765625 -24.828125 C 44.453125 -24.117188 44.140625 -23.238281 43.828125 -22.1875 C 43.523438 -21.132812 43.375 -19.84375 43.375 -18.3125 C 43.375 -16.851562 43.222656 -15.269531 42.921875 -13.5625 C 42.628906 -11.851562 42.09375 -10.160156 41.3125 -8.484375 C 40.53125 -6.816406 39.414062 -5.296875 37.96875 -3.921875 C 36.53125 -2.546875 34.6875 -1.445312 32.4375 -0.625 C 30.1875 0.195312 27.414062 0.609375 24.125 0.609375 C 20.332031 0.609375 17.050781 0.109375 14.28125 -0.890625 C 11.519531 -1.890625 9.195312 -3.300781 7.3125 -5.125 C 5.425781 -6.957031 3.914062 -9.109375 2.78125 -11.578125 C 1.65625 -14.046875 0.84375 -16.769531 0.34375 -19.75 C -0.15625 -22.726562 -0.40625 -25.847656 -0.40625 -29.109375 Z M -0.40625 -29.109375 "/></g></g></g></g><g clip-path="url(#ff84f589df)"><g fill="#4967ea" fill-opacity="1"><g transform="translate(125.876517, 59.767769)"><g><path d="M 3.921875 -47.859375 C 3.921875 -49.910156 4.300781 -51.765625 5.0625 -53.421875 C 5.832031 -55.078125 6.976562 -56.390625 8.5 -57.359375 C 10.03125 -58.328125 11.941406 -58.8125 14.234375 -58.8125 C 16.460938 -58.8125 18.328125 -58.328125 19.828125 -57.359375 C 21.328125 -56.390625 22.453125 -55.078125 23.203125 -53.421875 C 23.953125 -51.765625 24.328125 -49.910156 24.328125 -47.859375 C 24.328125 -46.671875 24.117188 -45.367188 23.703125 -43.953125 C 23.285156 -42.546875 22.757812 -41.070312 22.125 -39.53125 C 21.5 -38 20.851562 -36.453125 20.1875 -34.890625 C 19.53125 -33.328125 18.945312 -31.800781 18.4375 -30.3125 C 17.863281 -28.664062 17.4375 -27.125 17.15625 -25.6875 C 16.875 -24.25 16.625 -22.984375 16.40625 -21.890625 C 16.195312 -20.796875 15.929688 -19.9375 15.609375 -19.3125 C 15.285156 -18.695312 14.796875 -18.390625 14.140625 -18.390625 C 13.492188 -18.390625 13.007812 -18.695312 12.6875 -19.3125 C 12.363281 -19.9375 12.09375 -20.796875 11.875 -21.890625 C 11.664062 -22.984375 11.421875 -24.25 11.140625 -25.6875 C 10.859375 -27.125 10.429688 -28.664062 9.859375 -30.3125 C 9.347656 -31.800781 8.753906 -33.328125 8.078125 -34.890625 C 7.410156 -36.453125 6.757812 -38 6.125 -39.53125 C 5.488281 -41.070312 4.960938 -42.546875 4.546875 -43.953125 C 4.128906 -45.367188 3.921875 -46.671875 3.921875 -47.859375 Z M 14.1875 0.609375 C 13.644531 0.609375 12.878906 0.40625 11.890625 0 C 10.910156 -0.40625 9.851562 -0.960938 8.71875 -1.671875 C 7.59375 -2.390625 6.519531 -3.238281 5.5 -4.21875 C 4.476562 -5.207031 3.640625 -6.273438 2.984375 -7.421875 C 2.335938 -8.566406 2.015625 -9.757812 2.015625 -11 C 2.015625 -12.257812 2.285156 -13.359375 2.828125 -14.296875 C 3.367188 -15.242188 4.085938 -15.988281 4.984375 -16.53125 C 5.890625 -17.070312 6.851562 -17.34375 7.875 -17.34375 C 8.851562 -17.34375 9.722656 -17.144531 10.484375 -16.75 C 11.253906 -16.363281 11.945312 -15.882812 12.5625 -15.3125 C 13.1875 -14.75 13.726562 -14.171875 14.1875 -13.578125 C 14.644531 -14.171875 15.179688 -14.75 15.796875 -15.3125 C 16.421875 -15.882812 17.125 -16.363281 17.90625 -16.75 C 18.6875 -17.144531 19.550781 -17.34375 20.5 -17.34375 C 21.550781 -17.34375 22.519531 -17.070312 23.40625 -16.53125 C 24.289062 -15.988281 25.003906 -15.242188 25.546875 -14.296875 C 26.085938 -13.359375 26.359375 -12.257812 26.359375 -11 C 26.359375 -9.757812 26.035156 -8.566406 25.390625 -7.421875 C 24.742188 -6.273438 23.90625 -5.207031 22.875 -4.21875 C 21.851562 -3.238281 20.773438 -2.390625 19.640625 -1.671875 C 18.515625 -0.960938 17.457031 -0.40625 16.46875 0 C 15.488281 0.40625 14.726562 0.609375 14.1875 0.609375 Z M 14.1875 0.609375 "/></g></g></g></g></g></g><g transform="matrix(1, 0, 0, 1, 74, 249)"><g clip-path="url(#38d3676ef5)"><g fill="#4967ea" fill-opacity="1"><g transform="translate(0.65937, 16.889312)"><g><path d="M 0.78125 -9.015625 L 2.109375 -9.015625 L 2.109375 -3.546875 C 2.109375 -2.679688 2.351562 -2.015625 2.84375 -1.546875 C 3.34375 -1.078125 4.101562 -0.84375 5.125 -0.84375 C 6.132812 -0.84375 6.878906 -1.078125 7.359375 -1.546875 C 7.847656 -2.015625 8.09375 -2.679688 8.09375 -3.546875 L 8.09375 -9.015625 L 9.421875 -9.015625 L 9.421875 -3.546875 C 9.421875 -2.378906 9.054688 -1.460938 8.328125 -0.796875 C 7.609375 -0.128906 6.539062 0.203125 5.125 0.203125 C 3.695312 0.203125 2.613281 -0.128906 1.875 -0.796875 C 1.144531 -1.460938 0.78125 -2.378906 0.78125 -3.546875 Z M 0.78125 -9.015625 "/></g></g></g><g fill="#4967ea" fill-opacity="1"><g transform="translate(10.837824, 16.889312)"><g><path d="M 0.78125 -6.4375 L 1.765625 -6.4375 L 1.90625 -5.609375 C 2.132812 -5.929688 2.445312 -6.1875 2.84375 -6.375 C 3.25 -6.5625 3.738281 -6.65625 4.3125 -6.65625 C 4.945312 -6.65625 5.484375 -6.535156 5.921875 -6.296875 C 6.359375 -6.054688 6.6875 -5.734375 6.90625 -5.328125 C 7.125 -4.921875 7.234375 -4.457031 7.234375 -3.9375 L 7.234375 0 L 6 0 L 6 -3.9375 C 6 -4.457031 5.832031 -4.878906 5.5 -5.203125 C 5.175781 -5.523438 4.679688 -5.6875 4.015625 -5.6875 C 3.378906 -5.6875 2.882812 -5.53125 2.53125 -5.21875 C 2.1875 -4.90625 2.015625 -4.476562 2.015625 -3.9375 L 2.015625 0 L 0.78125 0 Z M 0.78125 -6.4375 "/></g></g></g><g fill="#4967ea" fill-opacity="1"><g transform="translate(18.851748, 16.889312)"><g/></g></g><g fill="#4967ea" fill-opacity="1"><g transform="translate(22.381996, 16.889312)"><g><path d="M 3.484375 -6.65625 C 4.421875 -6.65625 5.117188 -6.484375 5.578125 -6.140625 C 6.035156 -5.804688 6.273438 -5.378906 6.296875 -4.859375 L 5.125 -4.859375 C 5.082031 -5.117188 4.925781 -5.335938 4.65625 -5.515625 C 4.394531 -5.691406 3.984375 -5.78125 3.421875 -5.78125 C 2.835938 -5.78125 2.425781 -5.6875 2.1875 -5.5 C 1.945312 -5.3125 1.828125 -5.09375 1.828125 -4.84375 C 1.828125 -4.632812 1.878906 -4.441406 1.984375 -4.265625 C 2.097656 -4.097656 2.320312 -3.96875 2.65625 -3.875 L 4.9375 -3.296875 C 5.488281 -3.160156 5.875 -2.953125 6.09375 -2.671875 C 6.320312 -2.390625 6.4375 -2.050781 6.4375 -1.65625 C 6.4375 -1.101562 6.191406 -0.65625 5.703125 -0.3125 C 5.210938 0.03125 4.46875 0.203125 3.46875 0.203125 C 2.507812 0.203125 1.78125 0.0351562 1.28125 -0.296875 C 0.789062 -0.628906 0.535156 -1.085938 0.515625 -1.671875 L 1.734375 -1.671875 C 1.773438 -1.359375 1.941406 -1.113281 2.234375 -0.9375 C 2.523438 -0.757812 2.953125 -0.671875 3.515625 -0.671875 C 4.097656 -0.671875 4.523438 -0.757812 4.796875 -0.9375 C 5.066406 -1.125 5.203125 -1.347656 5.203125 -1.609375 C 5.203125 -1.796875 5.148438 -1.960938 5.046875 -2.109375 C 4.941406 -2.265625 4.726562 -2.390625 4.40625 -2.484375 L 2.15625 -3.09375 C 1.601562 -3.25 1.210938 -3.472656 0.984375 -3.765625 C 0.753906 -4.054688 0.640625 -4.425781 0.640625 -4.875 C 0.640625 -5.382812 0.867188 -5.804688 1.328125 -6.140625 C 1.796875 -6.484375 2.515625 -6.65625 3.484375 -6.65625 Z M 3.484375 -6.65625 "/></g></g></g><g fill="#4967ea" fill-opacity="1"><g transform="translate(29.287887, 16.889312)"><g><path d="M 4.015625 -6.65625 C 5.085938 -6.65625 5.910156 -6.347656 6.484375 -5.734375 C 7.066406 -5.117188 7.359375 -4.28125 7.359375 -3.21875 C 7.359375 -3.15625 7.359375 -3.097656 7.359375 -3.046875 C 7.359375 -3.003906 7.351562 -2.957031 7.34375 -2.90625 L 1.890625 -2.90625 C 1.941406 -2.195312 2.15625 -1.644531 2.53125 -1.25 C 2.90625 -0.863281 3.421875 -0.671875 4.078125 -0.671875 C 4.578125 -0.671875 4.988281 -0.785156 5.3125 -1.015625 C 5.632812 -1.242188 5.867188 -1.554688 6.015625 -1.953125 L 7.296875 -1.953125 C 7.109375 -1.285156 6.738281 -0.757812 6.1875 -0.375 C 5.644531 0.0078125 4.9375 0.203125 4.0625 0.203125 C 2.96875 0.203125 2.125 -0.101562 1.53125 -0.71875 C 0.945312 -1.332031 0.65625 -2.164062 0.65625 -3.21875 C 0.65625 -4.28125 0.941406 -5.117188 1.515625 -5.734375 C 2.097656 -6.347656 2.929688 -6.65625 4.015625 -6.65625 Z M 6.125 -3.640625 C 6.0625 -4.316406 5.847656 -4.84375 5.484375 -5.21875 C 5.128906 -5.59375 4.640625 -5.78125 4.015625 -5.78125 C 3.378906 -5.78125 2.878906 -5.59375 2.515625 -5.21875 C 2.160156 -4.84375 1.953125 -4.316406 1.890625 -3.640625 Z M 6.125 -3.640625 "/></g></g></g><g fill="#4967ea" fill-opacity="1"><g transform="translate(37.301811, 16.889312)"><g><path d="M 6.296875 -6.4375 L 7.234375 -6.4375 L 7.234375 0.1875 C 7.234375 0.96875 6.96875 1.59375 6.4375 2.0625 C 5.914062 2.539062 5.109375 2.78125 4.015625 2.78125 C 2.921875 2.78125 2.109375 2.578125 1.578125 2.171875 C 1.046875 1.765625 0.78125 1.210938 0.78125 0.515625 L 0.78125 0.421875 L 2 0.421875 L 2.015625 0.515625 C 2.035156 0.953125 2.203125 1.289062 2.515625 1.53125 C 2.828125 1.78125 3.328125 1.90625 4.015625 1.90625 C 4.722656 1.90625 5.226562 1.75 5.53125 1.4375 C 5.84375 1.125 6 0.707031 6 0.1875 L 6 -0.890625 C 5.757812 -0.546875 5.441406 -0.273438 5.046875 -0.078125 C 4.648438 0.109375 4.1875 0.203125 3.65625 0.203125 C 2.664062 0.203125 1.914062 -0.101562 1.40625 -0.71875 C 0.90625 -1.332031 0.65625 -2.164062 0.65625 -3.21875 C 0.65625 -4.28125 0.90625 -5.117188 1.40625 -5.734375 C 1.914062 -6.347656 2.664062 -6.65625 3.65625 -6.65625 C 4.238281 -6.65625 4.734375 -6.539062 5.140625 -6.3125 C 5.554688 -6.09375 5.882812 -5.78125 6.125 -5.375 Z M 6 -2.984375 L 6 -3.453125 C 6 -4.140625 5.828125 -4.679688 5.484375 -5.078125 C 5.140625 -5.484375 4.628906 -5.6875 3.953125 -5.6875 C 3.253906 -5.6875 2.734375 -5.46875 2.390625 -5.03125 C 2.046875 -4.601562 1.875 -4 1.875 -3.21875 C 1.875 -2.4375 2.046875 -1.832031 2.390625 -1.40625 C 2.734375 -0.976562 3.253906 -0.765625 3.953125 -0.765625 C 4.628906 -0.765625 5.140625 -0.960938 5.484375 -1.359375 C 5.828125 -1.765625 6 -2.304688 6 -2.984375 Z M 6 -2.984375 "/></g></g></g><g fill="#4967ea" fill-opacity="1"><g transform="translate(45.315735, 16.889312)"><g><path d="M 6 -6.4375 L 7.234375 -6.4375 L 7.234375 0 L 6.265625 0 L 6.125 -0.84375 C 5.894531 -0.519531 5.578125 -0.265625 5.171875 -0.078125 C 4.773438 0.109375 4.289062 0.203125 3.71875 0.203125 C 3.082031 0.203125 2.546875 0.0859375 2.109375 -0.140625 C 1.671875 -0.378906 1.335938 -0.703125 1.109375 -1.109375 C 0.890625 -1.523438 0.78125 -1.992188 0.78125 -2.515625 L 0.78125 -6.4375 L 2.015625 -6.4375 L 2.015625 -2.515625 C 2.015625 -1.992188 2.175781 -1.570312 2.5 -1.25 C 2.832031 -0.925781 3.335938 -0.765625 4.015625 -0.765625 C 4.640625 -0.765625 5.125 -0.921875 5.46875 -1.234375 C 5.820312 -1.546875 6 -1.972656 6 -2.515625 Z M 6 -6.4375 "/></g></g></g><g fill="#4967ea" fill-opacity="1"><g transform="translate(53.329658, 16.889312)"><g><path d="M 0.78125 -6.4375 L 1.765625 -6.4375 L 1.90625 -5.609375 C 2.132812 -5.929688 2.445312 -6.1875 2.84375 -6.375 C 3.25 -6.5625 3.738281 -6.65625 4.3125 -6.65625 C 4.945312 -6.65625 5.484375 -6.535156 5.921875 -6.296875 C 6.359375 -6.054688 6.6875 -5.734375 6.90625 -5.328125 C 7.125 -4.921875 7.234375 -4.457031 7.234375 -3.9375 L 7.234375 0 L 6 0 L 6 -3.9375 C 6 -4.457031 5.832031 -4.878906 5.5 -5.203125 C 5.175781 -5.523438 4.679688 -5.6875 4.015625 -5.6875 C 3.378906 -5.6875 2.882812 -5.53125 2.53125 -5.21875 C 2.1875 -4.90625 2.015625 -4.476562 2.015625 -3.9375 L 2.015625 0 L 0.78125 0 Z M 0.78125 -6.4375 "/></g></g></g><g fill="#4967ea" fill-opacity="1"><g transform="translate(61.343582, 16.889312)"><g><path d="M 6 -9.015625 L 7.234375 -9.015625 L 7.234375 0 L 6.265625 0 L 6.109375 -1.0625 C 5.867188 -0.664062 5.546875 -0.351562 5.140625 -0.125 C 4.734375 0.09375 4.238281 0.203125 3.65625 0.203125 C 2.664062 0.203125 1.914062 -0.101562 1.40625 -0.71875 C 0.90625 -1.332031 0.65625 -2.164062 0.65625 -3.21875 C 0.65625 -4.28125 0.90625 -5.117188 1.40625 -5.734375 C 1.914062 -6.347656 2.664062 -6.65625 3.65625 -6.65625 C 4.1875 -6.65625 4.648438 -6.554688 5.046875 -6.359375 C 5.441406 -6.171875 5.757812 -5.90625 6 -5.5625 Z M 6 -2.984375 L 6 -3.453125 C 6 -4.140625 5.828125 -4.679688 5.484375 -5.078125 C 5.140625 -5.484375 4.628906 -5.6875 3.953125 -5.6875 C 3.253906 -5.6875 2.734375 -5.46875 2.390625 -5.03125 C 2.046875 -4.601562 1.875 -4 1.875 -3.21875 C 1.875 -2.4375 2.046875 -1.832031 2.390625 -1.40625 C 2.734375 -0.976562 3.253906 -0.765625 3.953125 -0.765625 C 4.628906 -0.765625 5.140625 -0.960938 5.484375 -1.359375 C 5.828125 -1.765625 6 -2.304688 6 -2.984375 Z M 6 -2.984375 "/></g></g></g><g fill="#4967ea" fill-opacity="1"><g transform="translate(69.357506, 16.889312)"><g><path d="M 4.015625 -6.65625 C 5.085938 -6.65625 5.910156 -6.347656 6.484375 -5.734375 C 7.066406 -5.117188 7.359375 -4.28125 7.359375 -3.21875 C 7.359375 -2.164062 7.066406 -1.332031 6.484375 -0.71875 C 5.910156 -0.101562 5.085938 0.203125 4.015625 0.203125 C 2.929688 0.203125 2.097656 -0.101562 1.515625 -0.71875 C 0.941406 -1.332031 0.65625 -2.164062 0.65625 -3.21875 C 0.65625 -4.28125 0.941406 -5.117188 1.515625 -5.734375 C 2.097656 -6.347656 2.929688 -6.65625 4.015625 -6.65625 Z M 4.015625 -5.6875 C 3.328125 -5.6875 2.796875 -5.46875 2.421875 -5.03125 C 2.054688 -4.601562 1.875 -4 1.875 -3.21875 C 1.875 -2.4375 2.054688 -1.832031 2.421875 -1.40625 C 2.796875 -0.976562 3.328125 -0.765625 4.015625 -0.765625 C 4.703125 -0.765625 5.226562 -0.976562 5.59375 -1.40625 C 5.957031 -1.832031 6.140625 -2.4375 6.140625 -3.21875 C 6.140625 -4 5.957031 -4.601562 5.59375 -5.03125 C 5.226562 -5.46875 4.703125 -5.6875 4.015625 -5.6875 Z M 4.015625 -5.6875 "/></g></g></g><g fill="#4967ea" fill-opacity="1"><g transform="translate(77.37143, 16.889312)"><g/></g></g><g fill="#4967ea" fill-opacity="1"><g transform="translate(80.901683, 16.889312)"><g><path d="M 0.78125 -9.015625 L 2.015625 -9.015625 L 2.015625 -5.734375 C 2.253906 -6.015625 2.5625 -6.238281 2.9375 -6.40625 C 3.320312 -6.570312 3.78125 -6.65625 4.3125 -6.65625 C 4.945312 -6.65625 5.484375 -6.535156 5.921875 -6.296875 C 6.359375 -6.054688 6.6875 -5.734375 6.90625 -5.328125 C 7.125 -4.921875 7.234375 -4.457031 7.234375 -3.9375 L 7.234375 0 L 6 0 L 6 -3.9375 C 6 -4.457031 5.832031 -4.878906 5.5 -5.203125 C 5.175781 -5.523438 4.679688 -5.6875 4.015625 -5.6875 C 3.378906 -5.6875 2.882812 -5.53125 2.53125 -5.21875 C 2.1875 -4.90625 2.015625 -4.476562 2.015625 -3.9375 L 2.015625 0 L 0.78125 0 Z M 0.78125 -9.015625 "/></g></g></g><g fill="#4967ea" fill-opacity="1"><g transform="translate(88.915603, 16.889312)"><g><path d="M 4.015625 -6.65625 C 5.085938 -6.65625 5.910156 -6.347656 6.484375 -5.734375 C 7.066406 -5.117188 7.359375 -4.28125 7.359375 -3.21875 C 7.359375 -2.164062 7.066406 -1.332031 6.484375 -0.71875 C 5.910156 -0.101562 5.085938 0.203125 4.015625 0.203125 C 2.929688 0.203125 2.097656 -0.101562 1.515625 -0.71875 C 0.941406 -1.332031 0.65625 -2.164062 0.65625 -3.21875 C 0.65625 -4.28125 0.941406 -5.117188 1.515625 -5.734375 C 2.097656 -6.347656 2.929688 -6.65625 4.015625 -6.65625 Z M 4.015625 -5.6875 C 3.328125 -5.6875 2.796875 -5.46875 2.421875 -5.03125 C 2.054688 -4.601562 1.875 -4 1.875 -3.21875 C 1.875 -2.4375 2.054688 -1.832031 2.421875 -1.40625 C 2.796875 -0.976562 3.328125 -0.765625 4.015625 -0.765625 C 4.703125 -0.765625 5.226562 -0.976562 5.59375 -1.40625 C 5.957031 -1.832031 6.140625 -2.4375 6.140625 -3.21875 C 6.140625 -4 5.957031 -4.601562 5.59375 -5.03125 C 5.226562 -5.46875 4.703125 -5.6875 4.015625 -5.6875 Z M 4.015625 -5.6875 "/></g></g></g><g fill="#4967ea" fill-opacity="1"><g transform="translate(96.929523, 16.889312)"><g><path d="M 6.296875 -6.4375 L 7.234375 -6.4375 L 7.234375 0.1875 C 7.234375 0.96875 6.96875 1.59375 6.4375 2.0625 C 5.914062 2.539062 5.109375 2.78125 4.015625 2.78125 C 2.921875 2.78125 2.109375 2.578125 1.578125 2.171875 C 1.046875 1.765625 0.78125 1.210938 0.78125 0.515625 L 0.78125 0.421875 L 2 0.421875 L 2.015625 0.515625 C 2.035156 0.953125 2.203125 1.289062 2.515625 1.53125 C 2.828125 1.78125 3.328125 1.90625 4.015625 1.90625 C 4.722656 1.90625 5.226562 1.75 5.53125 1.4375 C 5.84375 1.125 6 0.707031 6 0.1875 L 6 -0.890625 C 5.757812 -0.546875 5.441406 -0.273438 5.046875 -0.078125 C 4.648438 0.109375 4.1875 0.203125 3.65625 0.203125 C 2.664062 0.203125 1.914062 -0.101562 1.40625 -0.71875 C 0.90625 -1.332031 0.65625 -2.164062 0.65625 -3.21875 C 0.65625 -4.28125 0.90625 -5.117188 1.40625 -5.734375 C 1.914062 -6.347656 2.664062 -6.65625 3.65625 -6.65625 C 4.238281 -6.65625 4.734375 -6.539062 5.140625 -6.3125 C 5.554688 -6.09375 5.882812 -5.78125 6.125 -5.375 Z M 6 -2.984375 L 6 -3.453125 C 6 -4.140625 5.828125 -4.679688 5.484375 -5.078125 C 5.140625 -5.484375 4.628906 -5.6875 3.953125 -5.6875 C 3.253906 -5.6875 2.734375 -5.46875 2.390625 -5.03125 C 2.046875 -4.601562 1.875 -4 1.875 -3.21875 C 1.875 -2.4375 2.046875 -1.832031 2.390625 -1.40625 C 2.734375 -0.976562 3.253906 -0.765625 3.953125 -0.765625 C 4.628906 -0.765625 5.140625 -0.960938 5.484375 -1.359375 C 5.828125 -1.765625 6 -2.304688 6 -2.984375 Z M 6 -2.984375 "/></g></g></g><g fill="#4967ea" fill-opacity="1"><g transform="translate(104.943451, 16.889312)"><g><path d="M 4 -6.65625 C 5.09375 -6.65625 5.898438 -6.457031 6.421875 -6.0625 C 6.953125 -5.664062 7.21875 -5.160156 7.21875 -4.546875 L 7.21875 0 L 6.25 0 L 6.09375 -1.046875 C 5.789062 -0.640625 5.375 -0.328125 4.84375 -0.109375 C 4.3125 0.0976562 3.734375 0.203125 3.109375 0.203125 C 2.296875 0.203125 1.679688 0.0390625 1.265625 -0.28125 C 0.847656 -0.601562 0.640625 -1.046875 0.640625 -1.609375 C 0.640625 -2.097656 0.804688 -2.507812 1.140625 -2.84375 C 1.484375 -3.175781 2.046875 -3.4375 2.828125 -3.625 C 3.609375 -3.8125 4.664062 -3.910156 6 -3.921875 L 6 -4.546875 C 6 -4.910156 5.84375 -5.210938 5.53125 -5.453125 C 5.21875 -5.691406 4.707031 -5.8125 4 -5.8125 C 3.289062 -5.8125 2.78125 -5.695312 2.46875 -5.46875 C 2.15625 -5.238281 2 -4.929688 2 -4.546875 L 2 -4.421875 L 0.765625 -4.421875 L 0.765625 -4.546875 C 0.765625 -5.171875 1.03125 -5.675781 1.5625 -6.0625 C 2.09375 -6.457031 2.90625 -6.65625 4 -6.65625 Z M 6 -2.5625 L 6 -3.203125 C 4.945312 -3.203125 4.117188 -3.140625 3.515625 -3.015625 C 2.910156 -2.898438 2.484375 -2.734375 2.234375 -2.515625 C 1.984375 -2.304688 1.859375 -2.039062 1.859375 -1.71875 C 1.859375 -1.394531 1.984375 -1.128906 2.234375 -0.921875 C 2.492188 -0.722656 2.898438 -0.625 3.453125 -0.625 C 3.898438 -0.625 4.3125 -0.695312 4.6875 -0.84375 C 5.070312 -1 5.382812 -1.222656 5.625 -1.515625 C 5.875 -1.804688 6 -2.15625 6 -2.5625 Z M 6 -2.5625 "/></g></g></g><g fill="#4967ea" fill-opacity="1"><g transform="translate(112.931608, 16.889312)"><g><path d="M 0.78125 -6.4375 L 1.734375 -6.4375 L 1.875 -5.859375 C 2.238281 -6.390625 2.734375 -6.65625 3.359375 -6.65625 C 3.628906 -6.65625 3.863281 -6.617188 4.0625 -6.546875 C 4.257812 -6.484375 4.441406 -6.40625 4.609375 -6.3125 L 4.609375 -5.34375 C 4.265625 -5.570312 3.859375 -5.6875 3.390625 -5.6875 C 3.171875 -5.6875 2.953125 -5.628906 2.734375 -5.515625 C 2.523438 -5.410156 2.351562 -5.25 2.21875 -5.03125 C 2.082031 -4.820312 2.015625 -4.546875 2.015625 -4.203125 L 2.015625 0 L 0.78125 0 Z M 0.78125 -6.4375 "/></g></g></g><g fill="#4967ea" fill-opacity="1"><g transform="translate(117.698726, 16.889312)"><g/></g></g><g fill="#4967ea" fill-opacity="1"><g transform="translate(121.228978, 16.889312)"><g><path d="M 0.78125 -6.4375 L 1.765625 -6.4375 L 1.90625 -5.390625 C 2.144531 -5.796875 2.46875 -6.109375 2.875 -6.328125 C 3.289062 -6.546875 3.789062 -6.65625 4.375 -6.65625 C 5.363281 -6.65625 6.109375 -6.347656 6.609375 -5.734375 C 7.109375 -5.117188 7.359375 -4.28125 7.359375 -3.21875 C 7.359375 -2.164062 7.109375 -1.332031 6.609375 -0.71875 C 6.109375 -0.101562 5.363281 0.203125 4.375 0.203125 C 3.84375 0.203125 3.378906 0.109375 2.984375 -0.078125 C 2.585938 -0.273438 2.265625 -0.550781 2.015625 -0.90625 L 2.015625 2.578125 L 0.78125 2.578125 Z M 2.015625 -3.453125 L 2.015625 -2.984375 C 2.015625 -2.304688 2.1875 -1.765625 2.53125 -1.359375 C 2.882812 -0.960938 3.394531 -0.765625 4.0625 -0.765625 C 4.757812 -0.765625 5.28125 -0.976562 5.625 -1.40625 C 5.96875 -1.832031 6.140625 -2.4375 6.140625 -3.21875 C 6.140625 -4 5.96875 -4.601562 5.625 -5.03125 C 5.28125 -5.46875 4.757812 -5.6875 4.0625 -5.6875 C 3.394531 -5.6875 2.882812 -5.484375 2.53125 -5.078125 C 2.1875 -4.671875 2.015625 -4.128906 2.015625 -3.453125 Z M 2.015625 -3.453125 "/></g></g></g><g fill="#4967ea" fill-opacity="1"><g transform="translate(129.242906, 16.889312)"><g><path d="M 4 -6.65625 C 5.09375 -6.65625 5.898438 -6.457031 6.421875 -6.0625 C 6.953125 -5.664062 7.21875 -5.160156 7.21875 -4.546875 L 7.21875 0 L 6.25 0 L 6.09375 -1.046875 C 5.789062 -0.640625 5.375 -0.328125 4.84375 -0.109375 C 4.3125 0.0976562 3.734375 0.203125 3.109375 0.203125 C 2.296875 0.203125 1.679688 0.0390625 1.265625 -0.28125 C 0.847656 -0.601562 0.640625 -1.046875 0.640625 -1.609375 C 0.640625 -2.097656 0.804688 -2.507812 1.140625 -2.84375 C 1.484375 -3.175781 2.046875 -3.4375 2.828125 -3.625 C 3.609375 -3.8125 4.664062 -3.910156 6 -3.921875 L 6 -4.546875 C 6 -4.910156 5.84375 -5.210938 5.53125 -5.453125 C 5.21875 -5.691406 4.707031 -5.8125 4 -5.8125 C 3.289062 -5.8125 2.78125 -5.695312 2.46875 -5.46875 C 2.15625 -5.238281 2 -4.929688 2 -4.546875 L 2 -4.421875 L 0.765625 -4.421875 L 0.765625 -4.546875 C 0.765625 -5.171875 1.03125 -5.675781 1.5625 -6.0625 C 2.09375 -6.457031 2.90625 -6.65625 4 -6.65625 Z M 6 -2.5625 L 6 -3.203125 C 4.945312 -3.203125 4.117188 -3.140625 3.515625 -3.015625 C 2.910156 -2.898438 2.484375 -2.734375 2.234375 -2.515625 C 1.984375 -2.304688 1.859375 -2.039062 1.859375 -1.71875 C 1.859375 -1.394531 1.984375 -1.128906 2.234375 -0.921875 C 2.492188 -0.722656 2.898438 -0.625 3.453125 -0.625 C 3.898438 -0.625 4.3125 -0.695312 4.6875 -0.84375 C 5.070312 -1 5.382812 -1.222656 5.625 -1.515625 C 5.875 -1.804688 6 -2.15625 6 -2.5625 Z M 6 -2.5625 "/></g></g></g><g fill="#4967ea" fill-opacity="1"><g transform="translate(137.231056, 16.889312)"><g><path d="M 0.78125 -6.4375 L 1.734375 -6.4375 L 1.875 -5.859375 C 2.238281 -6.390625 2.734375 -6.65625 3.359375 -6.65625 C 3.628906 -6.65625 3.863281 -6.617188 4.0625 -6.546875 C 4.257812 -6.484375 4.441406 -6.40625 4.609375 -6.3125 L 4.609375 -5.34375 C 4.265625 -5.570312 3.859375 -5.6875 3.390625 -5.6875 C 3.171875 -5.6875 2.953125 -5.628906 2.734375 -5.515625 C 2.523438 -5.410156 2.351562 -5.25 2.21875 -5.03125 C 2.082031 -4.820312 2.015625 -4.546875 2.015625 -4.203125 L 2.015625 0 L 0.78125 0 Z M 0.78125 -6.4375 "/></g></g></g><g fill="#4967ea" fill-opacity="1"><g transform="translate(141.637428, 16.889312)"><g><path d="M 4 -6.65625 C 5.09375 -6.65625 5.898438 -6.457031 6.421875 -6.0625 C 6.953125 -5.664062 7.21875 -5.160156 7.21875 -4.546875 L 7.21875 0 L 6.25 0 L 6.09375 -1.046875 C 5.789062 -0.640625 5.375 -0.328125 4.84375 -0.109375 C 4.3125 0.0976562 3.734375 0.203125 3.109375 0.203125 C 2.296875 0.203125 1.679688 0.0390625 1.265625 -0.28125 C 0.847656 -0.601562 0.640625 -1.046875 0.640625 -1.609375 C 0.640625 -2.097656 0.804688 -2.507812 1.140625 -2.84375 C 1.484375 -3.175781 2.046875 -3.4375 2.828125 -3.625 C 3.609375 -3.8125 4.664062 -3.910156 6 -3.921875 L 6 -4.546875 C 6 -4.910156 5.84375 -5.210938 5.53125 -5.453125 C 5.21875 -5.691406 4.707031 -5.8125 4 -5.8125 C 3.289062 -5.8125 2.78125 -5.695312 2.46875 -5.46875 C 2.15625 -5.238281 2 -4.929688 2 -4.546875 L 2 -4.421875 L 0.765625 -4.421875 L 0.765625 -4.546875 C 0.765625 -5.171875 1.03125 -5.675781 1.5625 -6.0625 C 2.09375 -6.457031 2.90625 -6.65625 4 -6.65625 Z M 6 -2.5625 L 6 -3.203125 C 4.945312 -3.203125 4.117188 -3.140625 3.515625 -3.015625 C 2.910156 -2.898438 2.484375 -2.734375 2.234375 -2.515625 C 1.984375 -2.304688 1.859375 -2.039062 1.859375 -1.71875 C 1.859375 -1.394531 1.984375 -1.128906 2.234375 -0.921875 C 2.492188 -0.722656 2.898438 -0.625 3.453125 -0.625 C 3.898438 -0.625 4.3125 -0.695312 4.6875 -0.84375 C 5.070312 -1 5.382812 -1.222656 5.625 -1.515625 C 5.875 -1.804688 6 -2.15625 6 -2.5625 Z M 6 -2.5625 "/></g></g></g><g fill="#4967ea" fill-opacity="1"><g transform="translate(149.625586, 16.889312)"><g/></g></g><g fill="#4967ea" fill-opacity="1"><g transform="translate(153.155822, 16.889312)"><g><path d="M 1.59375 -8.5625 L 2.578125 -8.5625 L 2.578125 -6.4375 L 4.96875 -6.4375 L 4.96875 -5.515625 L 2.578125 -5.515625 L 2.578125 -1.953125 C 2.578125 -1.535156 2.691406 -1.234375 2.921875 -1.046875 C 3.148438 -0.859375 3.414062 -0.765625 3.71875 -0.765625 C 3.945312 -0.765625 4.15625 -0.785156 4.34375 -0.828125 C 4.539062 -0.878906 4.75 -0.984375 4.96875 -1.140625 L 4.96875 -0.1875 C 4.519531 0.0703125 3.992188 0.203125 3.390625 0.203125 C 2.796875 0.203125 2.304688 0.03125 1.921875 -0.3125 C 1.546875 -0.664062 1.359375 -1.171875 1.359375 -1.828125 L 1.359375 -5.515625 L 0.234375 -5.515625 L 0.234375 -6.4375 L 1.359375 -6.4375 Z M 1.59375 -8.5625 "/></g></g></g><g fill="#4967ea" fill-opacity="1"><g transform="translate(158.283709, 16.889312)"><g><path d="M 6 -6.4375 L 7.234375 -6.4375 L 7.234375 0 L 6.265625 0 L 6.125 -0.84375 C 5.894531 -0.519531 5.578125 -0.265625 5.171875 -0.078125 C 4.773438 0.109375 4.289062 0.203125 3.71875 0.203125 C 3.082031 0.203125 2.546875 0.0859375 2.109375 -0.140625 C 1.671875 -0.378906 1.335938 -0.703125 1.109375 -1.109375 C 0.890625 -1.523438 0.78125 -1.992188 0.78125 -2.515625 L 0.78125 -6.4375 L 2.015625 -6.4375 L 2.015625 -2.515625 C 2.015625 -1.992188 2.175781 -1.570312 2.5 -1.25 C 2.832031 -0.925781 3.335938 -0.765625 4.015625 -0.765625 C 4.640625 -0.765625 5.125 -0.921875 5.46875 -1.234375 C 5.820312 -1.546875 6 -1.972656 6 -2.515625 Z M 6 -6.4375 "/></g></g></g><g fill="#4967ea" fill-opacity="1"><g transform="translate(166.297637, 16.889312)"><g/></g></g><g fill="#4967ea" fill-opacity="1"><g transform="translate(169.827889, 16.889312)"><g><path d="M 0.78125 -6.4375 L 1.734375 -6.4375 L 1.875 -5.828125 C 2.039062 -6.085938 2.273438 -6.289062 2.578125 -6.4375 C 2.890625 -6.582031 3.253906 -6.65625 3.671875 -6.65625 C 4.148438 -6.65625 4.554688 -6.554688 4.890625 -6.359375 C 5.222656 -6.171875 5.472656 -5.921875 5.640625 -5.609375 C 5.804688 -5.921875 6.046875 -6.171875 6.359375 -6.359375 C 6.679688 -6.554688 7.082031 -6.65625 7.5625 -6.65625 C 8.300781 -6.65625 8.859375 -6.441406 9.234375 -6.015625 C 9.617188 -5.597656 9.8125 -5.070312 9.8125 -4.4375 L 9.8125 0 L 8.578125 0 L 8.578125 -4.4375 C 8.578125 -4.8125 8.46875 -5.113281 8.25 -5.34375 C 8.03125 -5.570312 7.695312 -5.6875 7.25 -5.6875 C 6.832031 -5.6875 6.503906 -5.570312 6.265625 -5.34375 C 6.035156 -5.125 5.921875 -4.820312 5.921875 -4.4375 L 5.921875 0 L 4.6875 0 L 4.6875 -4.4375 C 4.6875 -4.8125 4.578125 -5.113281 4.359375 -5.34375 C 4.140625 -5.570312 3.800781 -5.6875 3.34375 -5.6875 C 2.9375 -5.6875 2.613281 -5.570312 2.375 -5.34375 C 2.132812 -5.125 2.015625 -4.820312 2.015625 -4.4375 L 2.015625 0 L 0.78125 0 Z M 0.78125 -6.4375 "/></g></g></g><g fill="#4967ea" fill-opacity="1"><g transform="translate(180.41863, 16.889312)"><g><path d="M 4 -6.65625 C 5.09375 -6.65625 5.898438 -6.457031 6.421875 -6.0625 C 6.953125 -5.664062 7.21875 -5.160156 7.21875 -4.546875 L 7.21875 0 L 6.25 0 L 6.09375 -1.046875 C 5.789062 -0.640625 5.375 -0.328125 4.84375 -0.109375 C 4.3125 0.0976562 3.734375 0.203125 3.109375 0.203125 C 2.296875 0.203125 1.679688 0.0390625 1.265625 -0.28125 C 0.847656 -0.601562 0.640625 -1.046875 0.640625 -1.609375 C 0.640625 -2.097656 0.804688 -2.507812 1.140625 -2.84375 C 1.484375 -3.175781 2.046875 -3.4375 2.828125 -3.625 C 3.609375 -3.8125 4.664062 -3.910156 6 -3.921875 L 6 -4.546875 C 6 -4.910156 5.84375 -5.210938 5.53125 -5.453125 C 5.21875 -5.691406 4.707031 -5.8125 4 -5.8125 C 3.289062 -5.8125 2.78125 -5.695312 2.46875 -5.46875 C 2.15625 -5.238281 2 -4.929688 2 -4.546875 L 2 -4.421875 L 0.765625 -4.421875 L 0.765625 -4.546875 C 0.765625 -5.171875 1.03125 -5.675781 1.5625 -6.0625 C 2.09375 -6.457031 2.90625 -6.65625 4 -6.65625 Z M 6 -2.5625 L 6 -3.203125 C 4.945312 -3.203125 4.117188 -3.140625 3.515625 -3.015625 C 2.910156 -2.898438 2.484375 -2.734375 2.234375 -2.515625 C 1.984375 -2.304688 1.859375 -2.039062 1.859375 -1.71875 C 1.859375 -1.394531 1.984375 -1.128906 2.234375 -0.921875 C 2.492188 -0.722656 2.898438 -0.625 3.453125 -0.625 C 3.898438 -0.625 4.3125 -0.695312 4.6875 -0.84375 C 5.070312 -1 5.382812 -1.222656 5.625 -1.515625 C 5.875 -1.804688 6 -2.15625 6 -2.5625 Z M 6 -2.5625 "/></g></g></g><g fill="#4967ea" fill-opacity="1"><g transform="translate(188.406788, 16.889312)"><g><path d="M 3.484375 -6.65625 C 4.421875 -6.65625 5.117188 -6.484375 5.578125 -6.140625 C 6.035156 -5.804688 6.273438 -5.378906 6.296875 -4.859375 L 5.125 -4.859375 C 5.082031 -5.117188 4.925781 -5.335938 4.65625 -5.515625 C 4.394531 -5.691406 3.984375 -5.78125 3.421875 -5.78125 C 2.835938 -5.78125 2.425781 -5.6875 2.1875 -5.5 C 1.945312 -5.3125 1.828125 -5.09375 1.828125 -4.84375 C 1.828125 -4.632812 1.878906 -4.441406 1.984375 -4.265625 C 2.097656 -4.097656 2.320312 -3.96875 2.65625 -3.875 L 4.9375 -3.296875 C 5.488281 -3.160156 5.875 -2.953125 6.09375 -2.671875 C 6.320312 -2.390625 6.4375 -2.050781 6.4375 -1.65625 C 6.4375 -1.101562 6.191406 -0.65625 5.703125 -0.3125 C 5.210938 0.03125 4.46875 0.203125 3.46875 0.203125 C 2.507812 0.203125 1.78125 0.0351562 1.28125 -0.296875 C 0.789062 -0.628906 0.535156 -1.085938 0.515625 -1.671875 L 1.734375 -1.671875 C 1.773438 -1.359375 1.941406 -1.113281 2.234375 -0.9375 C 2.523438 -0.757812 2.953125 -0.671875 3.515625 -0.671875 C 4.097656 -0.671875 4.523438 -0.757812 4.796875 -0.9375 C 5.066406 -1.125 5.203125 -1.347656 5.203125 -1.609375 C 5.203125 -1.796875 5.148438 -1.960938 5.046875 -2.109375 C 4.941406 -2.265625 4.726562 -2.390625 4.40625 -2.484375 L 2.15625 -3.09375 C 1.601562 -3.25 1.210938 -3.472656 0.984375 -3.765625 C 0.753906 -4.054688 0.640625 -4.425781 0.640625 -4.875 C 0.640625 -5.382812 0.867188 -5.804688 1.328125 -6.140625 C 1.796875 -6.484375 2.515625 -6.65625 3.484375 -6.65625 Z M 3.484375 -6.65625 "/></g></g></g><g fill="#4967ea" fill-opacity="1"><g transform="translate(195.31267, 16.889312)"><g><path d="M 4.09375 -6.65625 C 4.988281 -6.65625 5.710938 -6.453125 6.265625 -6.046875 C 6.828125 -5.640625 7.191406 -5.082031 7.359375 -4.375 L 6.140625 -4.375 C 5.992188 -4.789062 5.75 -5.113281 5.40625 -5.34375 C 5.0625 -5.570312 4.628906 -5.6875 4.109375 -5.6875 C 3.398438 -5.6875 2.847656 -5.46875 2.453125 -5.03125 C 2.066406 -4.601562 1.875 -4 1.875 -3.21875 C 1.875 -2.4375 2.066406 -1.832031 2.453125 -1.40625 C 2.847656 -0.976562 3.398438 -0.765625 4.109375 -0.765625 C 4.628906 -0.765625 5.0625 -0.875 5.40625 -1.09375 C 5.75 -1.320312 5.992188 -1.648438 6.140625 -2.078125 L 7.359375 -2.078125 C 7.191406 -1.359375 6.828125 -0.796875 6.265625 -0.390625 C 5.710938 0.00390625 4.988281 0.203125 4.09375 0.203125 C 2.988281 0.203125 2.140625 -0.101562 1.546875 -0.71875 C 0.953125 -1.332031 0.65625 -2.164062 0.65625 -3.21875 C 0.65625 -4.28125 0.953125 -5.117188 1.546875 -5.734375 C 2.140625 -6.347656 2.988281 -6.65625 4.09375 -6.65625 Z M 4.09375 -6.65625 "/></g></g></g><g fill="#4967ea" fill-opacity="1"><g transform="translate(203.275057, 16.889312)"><g><path d="M 4.015625 -6.65625 C 5.085938 -6.65625 5.910156 -6.347656 6.484375 -5.734375 C 7.066406 -5.117188 7.359375 -4.28125 7.359375 -3.21875 C 7.359375 -2.164062 7.066406 -1.332031 6.484375 -0.71875 C 5.910156 -0.101562 5.085938 0.203125 4.015625 0.203125 C 2.929688 0.203125 2.097656 -0.101562 1.515625 -0.71875 C 0.941406 -1.332031 0.65625 -2.164062 0.65625 -3.21875 C 0.65625 -4.28125 0.941406 -5.117188 1.515625 -5.734375 C 2.097656 -6.347656 2.929688 -6.65625 4.015625 -6.65625 Z M 4.015625 -5.6875 C 3.328125 -5.6875 2.796875 -5.46875 2.421875 -5.03125 C 2.054688 -4.601562 1.875 -4 1.875 -3.21875 C 1.875 -2.4375 2.054688 -1.832031 2.421875 -1.40625 C 2.796875 -0.976562 3.328125 -0.765625 4.015625 -0.765625 C 4.703125 -0.765625 5.226562 -0.976562 5.59375 -1.40625 C 5.957031 -1.832031 6.140625 -2.4375 6.140625 -3.21875 C 6.140625 -4 5.957031 -4.601562 5.59375 -5.03125 C 5.226562 -5.46875 4.703125 -5.6875 4.015625 -5.6875 Z M 4.015625 -5.6875 "/></g></g></g><g fill="#4967ea" fill-opacity="1"><g transform="translate(211.288985, 16.889312)"><g><path d="M 1.59375 -8.5625 L 2.578125 -8.5625 L 2.578125 -6.4375 L 4.96875 -6.4375 L 4.96875 -5.515625 L 2.578125 -5.515625 L 2.578125 -1.953125 C 2.578125 -1.535156 2.691406 -1.234375 2.921875 -1.046875 C 3.148438 -0.859375 3.414062 -0.765625 3.71875 -0.765625 C 3.945312 -0.765625 4.15625 -0.785156 4.34375 -0.828125 C 4.539062 -0.878906 4.75 -0.984375 4.96875 -1.140625 L 4.96875 -0.1875 C 4.519531 0.0703125 3.992188 0.203125 3.390625 0.203125 C 2.796875 0.203125 2.304688 0.03125 1.921875 -0.3125 C 1.546875 -0.664062 1.359375 -1.171875 1.359375 -1.828125 L 1.359375 -5.515625 L 0.234375 -5.515625 L 0.234375 -6.4375 L 1.359375 -6.4375 Z M 1.59375 -8.5625 "/></g></g></g><g fill="#4967ea" fill-opacity="1"><g transform="translate(216.416872, 16.889312)"><g><path d="M 4 -6.65625 C 5.09375 -6.65625 5.898438 -6.457031 6.421875 -6.0625 C 6.953125 -5.664062 7.21875 -5.160156 7.21875 -4.546875 L 7.21875 0 L 6.25 0 L 6.09375 -1.046875 C 5.789062 -0.640625 5.375 -0.328125 4.84375 -0.109375 C 4.3125 0.0976562 3.734375 0.203125 3.109375 0.203125 C 2.296875 0.203125 1.679688 0.0390625 1.265625 -0.28125 C 0.847656 -0.601562 0.640625 -1.046875 0.640625 -1.609375 C 0.640625 -2.097656 0.804688 -2.507812 1.140625 -2.84375 C 1.484375 -3.175781 2.046875 -3.4375 2.828125 -3.625 C 3.609375 -3.8125 4.664062 -3.910156 6 -3.921875 L 6 -4.546875 C 6 -4.910156 5.84375 -5.210938 5.53125 -5.453125 C 5.21875 -5.691406 4.707031 -5.8125 4 -5.8125 C 3.289062 -5.8125 2.78125 -5.695312 2.46875 -5.46875 C 2.15625 -5.238281 2 -4.929688 2 -4.546875 L 2 -4.421875 L 0.765625 -4.421875 L 0.765625 -4.546875 C 0.765625 -5.171875 1.03125 -5.675781 1.5625 -6.0625 C 2.09375 -6.457031 2.90625 -6.65625 4 -6.65625 Z M 6 -2.5625 L 6 -3.203125 C 4.945312 -3.203125 4.117188 -3.140625 3.515625 -3.015625 C 2.910156 -2.898438 2.484375 -2.734375 2.234375 -2.515625 C 1.984375 -2.304688 1.859375 -2.039062 1.859375 -1.71875 C 1.859375 -1.394531 1.984375 -1.128906 2.234375 -0.921875 C 2.492188 -0.722656 2.898438 -0.625 3.453125 -0.625 C 3.898438 -0.625 4.3125 -0.695312 4.6875 -0.84375 C 5.070312 -1 5.382812 -1.222656 5.625 -1.515625 C 5.875 -1.804688 6 -2.15625 6 -2.5625 Z M 6 -2.5625 "/></g></g></g><g fill="#4967ea" fill-opacity="1"><g transform="translate(224.405013, 16.889312)"><g><path d="M 0.65625 -1.390625 L 2.046875 -1.390625 L 2.046875 0 L 0.65625 0 Z M 0.65625 -1.390625 "/></g></g></g></g></g></svg>